<?xml version="1.0" encoding="iso-8859-1"?>
<!-- Generator: Adobe Illustrator 19.0.0, SVG Export Plug-In . SVG Version: 6.00 Build 0)  -->
<svg version="1.1" id="Layer_1" xmlns="http://www.w3.org/2000/svg" xmlns:xlink="http://www.w3.org/1999/xlink" x="0px" y="0px"
	 viewBox="0 0 509.287 509.287" style="enable-background:new 0 0 509.287 509.287;" xml:space="preserve">
<circle style="fill:#71D456;" cx="254.644" cy="254.644" r="254.644"/>
<path style="fill:#FCFCFD;" d="M401.801,135.968c0-1.695,0.339-3.391,0.339-5.425c0-37.637-30.517-67.815-67.815-67.815
	c-4.408,0-8.816,0.339-13.224,1.356c-19.327-23.396-48.487-38.315-81.038-38.315c-57.981,0-105.113,47.131-105.113,105.113
	c-41.028,0-74.596,33.229-74.596,74.596c0,41.028,33.229,74.596,74.596,74.596c32.551,0,201.748,0,239.046,0
	c41.028,0,74.596-33.229,74.596-74.596C448.593,173.944,429.266,147.158,401.801,135.968z"/>
<rect x="166.824" y="141.393" style="fill:#4F5565;" width="175.979" height="342.125"/>
<g>
	<rect x="195.306" y="170.893" style="fill:#646B79;" width="118.675" height="32.89"/>
	<rect x="195.306" y="212.938" style="fill:#646B79;" width="118.675" height="32.89"/>
	<rect x="195.306" y="255.322" style="fill:#646B79;" width="118.675" height="32.89"/>
</g>
<circle style="fill:#6EB1E1;" cx="254.644" cy="405.87" r="21.362"/>
<g>
</g>
<g>
</g>
<g>
</g>
<g>
</g>
<g>
</g>
<g>
</g>
<g>
</g>
<g>
</g>
<g>
</g>
<g>
</g>
<g>
</g>
<g>
</g>
<g>
</g>
<g>
</g>
<g>
</g>
</svg>
