<?xml version="1.0" encoding="iso-8859-1"?>
<!-- Generator: Adobe Illustrator 19.0.0, SVG Export Plug-In . SVG Version: 6.00 Build 0)  -->
<svg version="1.1" id="Layer_1" xmlns="http://www.w3.org/2000/svg" xmlns:xlink="http://www.w3.org/1999/xlink" x="0px" y="0px"
	 viewBox="0 0 505 505" style="enable-background:new 0 0 505 505;" xml:space="preserve">
<circle style="fill:#90DFAA;" cx="252.5" cy="252.5" r="252.5"/>
<polygon style="fill:#FFFFFF;" points="89.2,400.1 89.2,89.2 106,89.2 106,383.2 400.1,383.2 400.1,400.1 "/>
<polygon style="fill:#FD8469;" points="384.1,153.3 338.1,163.5 349.2,174.7 270.5,253.4 246.5,229.4 168.6,307.3 181.2,319.9 
	246.5,254.7 270.5,278.7 361.8,187.3 373.9,199.3 "/>
<polygon style="fill:#324A5E;" points="364.5,284.8 318.5,274.6 329.6,263.4 250.9,184.7 207.2,228.4 129.3,150.5 141.9,137.9 
	207.2,203.1 250.9,159.4 342.3,250.8 354.3,238.8 "/>
<g>
</g>
<g>
</g>
<g>
</g>
<g>
</g>
<g>
</g>
<g>
</g>
<g>
</g>
<g>
</g>
<g>
</g>
<g>
</g>
<g>
</g>
<g>
</g>
<g>
</g>
<g>
</g>
<g>
</g>
</svg>
