<svg xmlns="http://www.w3.org/2000/svg" xmlns:xlink="http://www.w3.org/1999/xlink" viewBox="0 0 1541.6 1155" width="100%" preserveAspectRation="none slice"><defs><clipPath id="b" transform="translate(.1)"><path fill="none" d="M90.9 86h800v800h-800z"/></clipPath><linearGradient id="a" x1="1439.05" x2="1541.64" y1="222.11" y2="222.11" data-name="Degradado sin nombre 39" gradientUnits="userSpaceOnUse"><stop offset="0" stop-color="#fff"/><stop offset="1" stop-color="#fff" stop-opacity=".5"/></linearGradient><linearGradient id="c" x1="1336.46" x2="1439.05" y1="222.11" y2="222.11" xlink:href="#a"/><linearGradient id="d" x1="1387.76" x2="1490.34" y1="222.11" y2="222.11" xlink:href="#a"/><linearGradient id="e" x1="1387.76" x2="1490.34" y1="133.26" y2="133.26" xlink:href="#a"/><linearGradient id="f" x1="1439.05" x2="1541.64" y1="133.26" y2="133.26" xlink:href="#a"/><linearGradient id="g" x1="1336.46" x2="1439.05" y1="133.26" y2="133.26" xlink:href="#a"/><linearGradient id="h" x1="1439.05" x2="1541.64" y1="44.42" y2="44.42" xlink:href="#a"/><linearGradient id="i" x1="1336.46" x2="1439.05" y1="44.42" y2="44.42" xlink:href="#a"/><linearGradient id="j" x1="1387.76" x2="1490.34" y1="44.42" y2="44.42" xlink:href="#a"/><linearGradient id="k" x1="1439.05" x2="1541.64" y1="399.79" y2="399.79" xlink:href="#a"/><linearGradient id="l" x1="1336.46" x2="1439.05" y1="399.79" y2="399.79" xlink:href="#a"/><linearGradient id="m" x1="1387.76" x2="1490.34" y1="399.79" y2="399.79" xlink:href="#a"/><linearGradient id="n" x1="1387.76" x2="1490.34" y1="310.95" y2="310.95" xlink:href="#a"/><linearGradient id="o" x1="1439.05" x2="1541.64" y1="310.95" y2="310.95" xlink:href="#a"/><linearGradient id="p" x1="1336.46" x2="1439.05" y1="310.95" y2="310.95" xlink:href="#a"/><linearGradient id="q" x1="1439.05" x2="1541.64" y1="577.48" y2="577.48" xlink:href="#a"/><linearGradient id="r" x1="1336.46" x2="1439.05" y1="577.48" y2="577.48" xlink:href="#a"/><linearGradient id="s" x1="1387.76" x2="1490.34" y1="577.48" y2="577.48" xlink:href="#a"/><linearGradient id="t" x1="1387.76" x2="1490.34" y1="488.64" y2="488.64" xlink:href="#a"/><linearGradient id="u" x1="1439.05" x2="1541.64" y1="488.64" y2="488.64" xlink:href="#a"/><linearGradient id="v" x1="1336.46" x2="1439.05" y1="488.64" y2="488.64" xlink:href="#a"/><linearGradient id="w" x1="1439.05" x2="1541.64" y1="755.17" y2="755.17" xlink:href="#a"/><linearGradient id="x" x1="1336.46" x2="1439.05" y1="755.17" y2="755.17" xlink:href="#a"/><linearGradient id="y" x1="1387.76" x2="1490.34" y1="755.17" y2="755.17" xlink:href="#a"/><linearGradient id="z" x1="1387.76" x2="1490.34" y1="666.32" y2="666.32" xlink:href="#a"/><linearGradient id="A" x1="1439.05" x2="1541.64" y1="666.32" y2="666.32" xlink:href="#a"/><linearGradient id="B" x1="1336.46" x2="1439.05" y1="666.32" y2="666.32" xlink:href="#a"/><linearGradient id="C" x1="1439.05" x2="1541.64" y1="932.85" y2="932.85" xlink:href="#a"/><linearGradient id="D" x1="1336.46" x2="1439.05" y1="932.85" y2="932.85" xlink:href="#a"/><linearGradient id="E" x1="1387.76" x2="1490.34" y1="932.85" y2="932.85" xlink:href="#a"/><linearGradient id="F" x1="1387.76" x2="1490.34" y1="844.01" y2="844.01" xlink:href="#a"/><linearGradient id="G" x1="1439.05" x2="1541.64" y1="844.01" y2="844.01" xlink:href="#a"/><linearGradient id="H" x1="1336.46" x2="1439.05" y1="844.01" y2="844.01" xlink:href="#a"/><linearGradient id="I" x1="1439.05" x2="1541.64" y1="1110.54" y2="1110.54" xlink:href="#a"/><linearGradient id="J" x1="1336.46" x2="1439.05" y1="1110.54" y2="1110.54" xlink:href="#a"/><linearGradient id="K" x1="1387.76" x2="1490.34" y1="1110.54" y2="1110.54" xlink:href="#a"/><linearGradient id="L" x1="1387.76" x2="1490.34" y1="1021.7" y2="1021.7" xlink:href="#a"/><linearGradient id="M" x1="1439.05" x2="1541.64" y1="1021.7" y2="1021.7" xlink:href="#a"/><linearGradient id="N" x1="1336.46" x2="1439.05" y1="1021.7" y2="1021.7" xlink:href="#a"/><linearGradient id="O" x1="1233.88" x2="1336.46" y1="222.11" y2="222.11" xlink:href="#a"/><linearGradient id="P" x1="1285.17" x2="1387.76" y1="222.11" y2="222.11" xlink:href="#a"/><linearGradient id="Q" x1="1285.17" x2="1387.76" y1="133.26" y2="133.26" xlink:href="#a"/><linearGradient id="R" x1="1233.88" x2="1336.46" y1="133.26" y2="133.26" xlink:href="#a"/><linearGradient id="S" x1="1233.88" x2="1336.46" y1="44.42" y2="44.42" xlink:href="#a"/><linearGradient id="T" x1="1285.17" x2="1387.76" y1="44.42" y2="44.42" xlink:href="#a"/><linearGradient id="U" x1="1233.88" x2="1336.46" y1="399.79" y2="399.79" xlink:href="#a"/><linearGradient id="V" x1="1285.17" x2="1387.76" y1="399.79" y2="399.79" xlink:href="#a"/><linearGradient id="W" x1="1285.17" x2="1387.76" y1="310.95" y2="310.95" xlink:href="#a"/><linearGradient id="X" x1="1233.88" x2="1336.46" y1="310.95" y2="310.95" xlink:href="#a"/><linearGradient id="Y" x1="1233.88" x2="1336.46" y1="577.48" y2="577.48" xlink:href="#a"/><linearGradient id="Z" x1="1285.17" x2="1387.76" y1="577.48" y2="577.48" xlink:href="#a"/><linearGradient id="aa" x1="1285.17" x2="1387.76" y1="488.64" y2="488.64" xlink:href="#a"/><linearGradient id="ab" x1="1233.88" x2="1336.46" y1="488.64" y2="488.64" xlink:href="#a"/><linearGradient id="ac" x1="1233.88" x2="1336.46" y1="755.17" y2="755.17" xlink:href="#a"/><linearGradient id="ad" x1="1285.17" x2="1387.76" y1="755.17" y2="755.17" xlink:href="#a"/><linearGradient id="ae" x1="1285.17" x2="1387.76" y1="666.32" y2="666.32" xlink:href="#a"/><linearGradient id="af" x1="1233.88" x2="1336.46" y1="666.32" y2="666.32" xlink:href="#a"/><linearGradient id="ag" x1="1233.88" x2="1336.46" y1="932.85" y2="932.85" xlink:href="#a"/><linearGradient id="ah" x1="1285.17" x2="1387.76" y1="932.85" y2="932.85" xlink:href="#a"/><linearGradient id="ai" x1="1285.17" x2="1387.76" y1="844.01" y2="844.01" xlink:href="#a"/><linearGradient id="aj" x1="1233.88" x2="1336.46" y1="844.01" y2="844.01" xlink:href="#a"/><linearGradient id="ak" x1="1233.88" x2="1336.46" y1="1110.54" y2="1110.54" xlink:href="#a"/><linearGradient id="al" x1="1285.17" x2="1387.76" y1="1110.54" y2="1110.54" xlink:href="#a"/><linearGradient id="am" x1="1285.17" x2="1387.76" y1="1021.7" y2="1021.7" xlink:href="#a"/><linearGradient id="an" x1="1233.88" x2="1336.46" y1="1021.7" y2="1021.7" xlink:href="#a"/><linearGradient id="ao" x1="1131.29" x2="1233.88" y1="222.11" y2="222.11" xlink:href="#a"/><linearGradient id="ap" x1="1182.58" x2="1285.17" y1="222.11" y2="222.11" xlink:href="#a"/><linearGradient id="aq" x1="1182.58" x2="1285.17" y1="133.26" y2="133.26" xlink:href="#a"/><linearGradient id="ar" x1="1131.29" x2="1233.88" y1="133.26" y2="133.26" xlink:href="#a"/><linearGradient id="as" x1="1131.29" x2="1233.88" y1="44.42" y2="44.42" xlink:href="#a"/><linearGradient id="at" x1="1182.58" x2="1285.17" y1="44.42" y2="44.42" xlink:href="#a"/><linearGradient id="au" x1="1131.29" x2="1233.88" y1="399.79" y2="399.79" xlink:href="#a"/><linearGradient id="av" x1="1182.58" x2="1285.17" y1="399.79" y2="399.79" xlink:href="#a"/><linearGradient id="aw" x1="1182.58" x2="1285.17" y1="310.95" y2="310.95" xlink:href="#a"/><linearGradient id="ax" x1="1131.29" x2="1233.88" y1="310.95" y2="310.95" xlink:href="#a"/><linearGradient id="ay" x1="1131.29" x2="1233.88" y1="577.48" y2="577.48" xlink:href="#a"/><linearGradient id="az" x1="1182.58" x2="1285.17" y1="577.48" y2="577.48" xlink:href="#a"/><linearGradient id="aA" x1="1182.58" x2="1285.17" y1="488.64" y2="488.64" xlink:href="#a"/><linearGradient id="aB" x1="1131.29" x2="1233.88" y1="488.64" y2="488.64" xlink:href="#a"/><linearGradient id="aC" x1="1131.29" x2="1233.88" y1="932.85" y2="932.85" xlink:href="#a"/><linearGradient id="aD" x1="1182.58" x2="1285.17" y1="932.85" y2="932.85" xlink:href="#a"/><linearGradient id="aE" x1="1182.58" x2="1285.17" y1="844.01" y2="844.01" xlink:href="#a"/><linearGradient id="aF" x1="1131.29" x2="1233.88" y1="844.01" y2="844.01" xlink:href="#a"/><linearGradient id="aG" x1="1131.29" x2="1233.88" y1="755.17" y2="755.17" xlink:href="#a"/><linearGradient id="aH" x1="1182.58" x2="1285.17" y1="755.17" y2="755.17" xlink:href="#a"/><linearGradient id="aI" x1="1131.29" x2="1233.88" y1="1110.54" y2="1110.54" xlink:href="#a"/><linearGradient id="aJ" x1="1182.58" x2="1285.17" y1="1110.54" y2="1110.54" xlink:href="#a"/><linearGradient id="aK" x1="1182.58" x2="1285.17" y1="1021.7" y2="1021.7" xlink:href="#a"/><linearGradient id="aL" x1="1131.29" x2="1233.88" y1="1021.7" y2="1021.7" xlink:href="#a"/><linearGradient id="aM" x1="1028.7" x2="1131.29" y1="222.11" y2="222.11" xlink:href="#a"/><linearGradient id="aN" x1="1080" x2="1182.58" y1="222.11" y2="222.11" xlink:href="#a"/><linearGradient id="aO" x1="1080" x2="1182.58" y1="133.26" y2="133.26" xlink:href="#a"/><linearGradient id="aP" x1="1028.7" x2="1131.29" y1="133.26" y2="133.26" xlink:href="#a"/><linearGradient id="aQ" x1="1028.7" x2="1131.29" y1="44.42" y2="44.42" xlink:href="#a"/><linearGradient id="aR" x1="1080" x2="1182.58" y1="44.42" y2="44.42" xlink:href="#a"/><linearGradient id="aS" x1="1028.7" x2="1131.29" y1="399.79" y2="399.79" xlink:href="#a"/><linearGradient id="aT" x1="1080" x2="1182.58" y1="399.79" y2="399.79" xlink:href="#a"/><linearGradient id="aU" x1="1080" x2="1182.58" y1="310.95" y2="310.95" xlink:href="#a"/><linearGradient id="aV" x1="1028.7" x2="1131.29" y1="310.95" y2="310.95" xlink:href="#a"/><linearGradient id="aW" x1="1028.7" x2="1131.29" y1="577.48" y2="577.48" xlink:href="#a"/><linearGradient id="aX" x1="1080" x2="1182.58" y1="577.48" y2="577.48" xlink:href="#a"/><linearGradient id="aY" x1="1080" x2="1182.58" y1="488.64" y2="488.64" xlink:href="#a"/><linearGradient id="aZ" x1="1028.7" x2="1131.29" y1="488.64" y2="488.64" xlink:href="#a"/><linearGradient id="ba" x1="1028.7" x2="1131.29" y1="755.17" y2="755.17" xlink:href="#a"/><linearGradient id="bb" x1="1080" x2="1182.58" y1="755.17" y2="755.17" xlink:href="#a"/><linearGradient id="bc" x1="1080" x2="1182.58" y1="666.32" y2="666.32" xlink:href="#a"/><linearGradient id="bd" x1="1131.29" x2="1233.88" y1="666.32" y2="666.32" xlink:href="#a"/><linearGradient id="be" x1="1028.7" x2="1131.29" y1="666.32" y2="666.32" xlink:href="#a"/><linearGradient id="bf" x1="1028.7" x2="1131.29" y1="932.85" y2="932.85" xlink:href="#a"/><linearGradient id="bg" x1="1080" x2="1182.58" y1="932.85" y2="932.85" xlink:href="#a"/><linearGradient id="bh" x1="1080" x2="1182.58" y1="844.01" y2="844.01" xlink:href="#a"/><linearGradient id="bi" x1="1028.7" x2="1131.29" y1="844.01" y2="844.01" xlink:href="#a"/><linearGradient id="bj" x1="1028.7" x2="1131.29" y1="1110.54" y2="1110.54" xlink:href="#a"/><linearGradient id="bk" x1="1080" x2="1182.58" y1="1110.54" y2="1110.54" xlink:href="#a"/><linearGradient id="bl" x1="1080" x2="1182.58" y1="1021.7" y2="1021.7" xlink:href="#a"/><linearGradient id="bm" x1="1028.7" x2="1131.29" y1="1021.7" y2="1021.7" xlink:href="#a"/><linearGradient id="bn" x1="926.11" x2="1028.7" y1="222.11" y2="222.11" xlink:href="#a"/><linearGradient id="bo" x1="977.41" x2="1080" y1="222.11" y2="222.11" xlink:href="#a"/><linearGradient id="bp" x1="977.41" x2="1080" y1="133.26" y2="133.26" xlink:href="#a"/><linearGradient id="bq" x1="926.11" x2="1028.7" y1="133.26" y2="133.26" xlink:href="#a"/><linearGradient id="br" x1="926.11" x2="1028.7" y1="44.42" y2="44.42" xlink:href="#a"/><linearGradient id="bs" x1="977.41" x2="1080" y1="44.42" y2="44.42" xlink:href="#a"/><linearGradient id="bt" x1="926.11" x2="1028.7" y1="399.79" y2="399.79" xlink:href="#a"/><linearGradient id="bu" x1="977.41" x2="1080" y1="399.79" y2="399.79" xlink:href="#a"/><linearGradient id="bv" x1="977.41" x2="1080" y1="310.95" y2="310.95" xlink:href="#a"/><linearGradient id="bw" x1="926.11" x2="1028.7" y1="310.95" y2="310.95" xlink:href="#a"/><linearGradient id="bx" x1="926.11" x2="1028.7" y1="577.48" y2="577.48" xlink:href="#a"/><linearGradient id="by" x1="977.41" x2="1080" y1="577.48" y2="577.48" xlink:href="#a"/><linearGradient id="bz" x1="926.11" x2="1028.7" y1="488.64" y2="488.64" xlink:href="#a"/><linearGradient id="bA" x1="926.11" x2="1028.7" y1="755.17" y2="755.17" xlink:href="#a"/><linearGradient id="bB" x1="977.41" x2="1080" y1="755.17" y2="755.17" xlink:href="#a"/><linearGradient id="bC" x1="977.41" x2="1080" y1="666.32" y2="666.32" xlink:href="#a"/><linearGradient id="bD" x1="926.11" x2="1028.7" y1="666.32" y2="666.32" xlink:href="#a"/><linearGradient id="bE" x1="926.11" x2="1028.7" y1="932.85" y2="932.85" xlink:href="#a"/><linearGradient id="bF" x1="977.41" x2="1080" y1="932.85" y2="932.85" xlink:href="#a"/><linearGradient id="bG" x1="977.41" x2="1080" y1="844.01" y2="844.01" xlink:href="#a"/><linearGradient id="bH" x1="926.11" x2="1028.7" y1="844.01" y2="844.01" xlink:href="#a"/><linearGradient id="bI" x1="926.11" x2="1028.7" y1="1110.54" y2="1110.54" xlink:href="#a"/><linearGradient id="bJ" x1="977.41" x2="1080" y1="1110.54" y2="1110.54" xlink:href="#a"/><linearGradient id="bK" x1="977.41" x2="1080" y1="1021.7" y2="1021.7" xlink:href="#a"/><linearGradient id="bL" x1="926.11" x2="1028.7" y1="1021.7" y2="1021.7" xlink:href="#a"/><linearGradient id="bM" x1="823.53" x2="926.11" y1="222.11" y2="222.11" xlink:href="#a"/><linearGradient id="bN" x1="874.82" x2="977.41" y1="222.11" y2="222.11" xlink:href="#a"/><linearGradient id="bO" x1="874.82" x2="977.41" y1="133.26" y2="133.26" xlink:href="#a"/><linearGradient id="bP" x1="823.53" x2="926.11" y1="133.26" y2="133.26" xlink:href="#a"/><linearGradient id="bQ" x1="823.53" x2="926.11" y1="44.42" y2="44.42" xlink:href="#a"/><linearGradient id="bR" x1="874.82" x2="977.41" y1="44.42" y2="44.42" xlink:href="#a"/><linearGradient id="bS" x1="823.53" x2="926.11" y1="577.48" y2="577.48" xlink:href="#a"/><linearGradient id="bT" x1="874.82" x2="977.41" y1="577.48" y2="577.48" xlink:href="#a"/><linearGradient id="bU" x1="874.82" x2="977.41" y1="488.64" y2="488.64" xlink:href="#a"/><linearGradient id="bV" x1="823.53" x2="926.11" y1="488.64" y2="488.64" xlink:href="#a"/><linearGradient id="bW" x1="874.82" x2="977.41" y1="399.79" y2="399.79" xlink:href="#a"/><linearGradient id="bX" x1="823.53" x2="926.11" y1="932.85" y2="932.85" xlink:href="#a"/><linearGradient id="bY" x1="874.82" x2="977.41" y1="932.85" y2="932.85" xlink:href="#a"/><linearGradient id="bZ" x1="874.82" x2="977.41" y1="844.01" y2="844.01" xlink:href="#a"/><linearGradient id="ca" x1="823.53" x2="926.11" y1="844.01" y2="844.01" xlink:href="#a"/><linearGradient id="cb" x1="823.53" x2="926.11" y1="755.17" y2="755.17" xlink:href="#a"/><linearGradient id="cc" x1="823.53" x2="926.11" y1="1110.54" y2="1110.54" xlink:href="#a"/><linearGradient id="cd" x1="874.82" x2="977.41" y1="1110.54" y2="1110.54" xlink:href="#a"/><linearGradient id="ce" x1="874.82" x2="977.41" y1="1021.7" y2="1021.7" xlink:href="#a"/><linearGradient id="cf" x1="823.53" x2="926.11" y1="1021.7" y2="1021.7" xlink:href="#a"/><linearGradient id="cg" x1="720.94" x2="823.53" y1="755.17" y2="755.17" xlink:href="#a"/><linearGradient id="ch" x1="772.23" x2="874.82" y1="755.17" y2="755.17" xlink:href="#a"/><linearGradient id="ci" x1="772.23" x2="874.82" y1="666.32" y2="666.32" xlink:href="#a"/><linearGradient id="cj" x1="823.53" x2="926.11" y1="666.32" y2="666.32" xlink:href="#a"/><linearGradient id="ck" x1="720.94" x2="823.53" y1="577.48" y2="577.48" xlink:href="#a"/><linearGradient id="cl" x1="720.94" x2="823.53" y1="932.85" y2="932.85" xlink:href="#a"/><linearGradient id="cm" x1="772.23" x2="874.82" y1="932.85" y2="932.85" xlink:href="#a"/><linearGradient id="cn" x1="772.23" x2="874.82" y1="844.01" y2="844.01" xlink:href="#a"/><linearGradient id="co" x1="720.94" x2="823.53" y1="844.01" y2="844.01" xlink:href="#a"/><linearGradient id="cp" x1="720.94" x2="823.53" y1="1110.54" y2="1110.54" xlink:href="#a"/><linearGradient id="cq" x1="772.23" x2="874.82" y1="1110.54" y2="1110.54" xlink:href="#a"/><linearGradient id="cr" x1="772.23" x2="874.82" y1="1021.7" y2="1021.7" xlink:href="#a"/><linearGradient id="cs" x1="720.94" x2="823.53" y1="1021.7" y2="1021.7" xlink:href="#a"/><linearGradient id="ct" x1="669.65" x2="772.23" y1="755.17" y2="755.17" xlink:href="#a"/><linearGradient id="cu" x1="669.65" x2="772.23" y1="666.32" y2="666.32" xlink:href="#a"/><linearGradient id="cv" x1="618.35" x2="720.94" y1="577.48" y2="577.48" xlink:href="#a"/><linearGradient id="cw" x1="669.65" x2="772.23" y1="577.48" y2="577.48" xlink:href="#a"/><linearGradient id="cx" x1="618.35" x2="720.94" y1="932.85" y2="932.85" xlink:href="#a"/><linearGradient id="cy" x1="669.65" x2="772.23" y1="932.85" y2="932.85" xlink:href="#a"/><linearGradient id="cz" x1="669.65" x2="772.23" y1="844.01" y2="844.01" xlink:href="#a"/><linearGradient id="cA" x1="618.35" x2="720.94" y1="844.01" y2="844.01" xlink:href="#a"/><linearGradient id="cB" x1="618.35" x2="720.94" y1="1110.54" y2="1110.54" xlink:href="#a"/><linearGradient id="cC" x1="669.65" x2="772.23" y1="1110.54" y2="1110.54" xlink:href="#a"/><linearGradient id="cD" x1="669.65" x2="772.23" y1="1021.7" y2="1021.7" xlink:href="#a"/><linearGradient id="cE" x1="618.35" x2="720.94" y1="1021.7" y2="1021.7" xlink:href="#a"/><linearGradient id="cF" x1="515.76" x2="618.35" y1="932.85" y2="932.85" xlink:href="#a"/><linearGradient id="cG" x1="567.06" x2="669.65" y1="932.85" y2="932.85" xlink:href="#a"/><linearGradient id="cH" x1="567.06" x2="669.65" y1="844.01" y2="844.01" xlink:href="#a"/><linearGradient id="cI" x1="515.76" x2="618.35" y1="844.01" y2="844.01" xlink:href="#a"/><linearGradient id="cJ" x1="567.06" x2="669.65" y1="755.17" y2="755.17" xlink:href="#a"/><linearGradient id="cK" x1="515.76" x2="618.35" y1="1110.54" y2="1110.54" xlink:href="#a"/><linearGradient id="cL" x1="567.06" x2="669.65" y1="1110.54" y2="1110.54" xlink:href="#a"/><linearGradient id="cM" x1="567.06" x2="669.65" y1="1021.7" y2="1021.7" xlink:href="#a"/><linearGradient id="cN" x1="515.76" x2="618.35" y1="1021.7" y2="1021.7" xlink:href="#a"/><linearGradient id="cO" x1="413.18" x2="515.76" y1="755.17" y2="755.17" xlink:href="#a"/><linearGradient id="cP" x1="464.47" x2="567.06" y1="755.17" y2="755.17" xlink:href="#a"/><linearGradient id="cQ" x1="464.47" x2="567.06" y1="666.32" y2="666.32" xlink:href="#a"/><linearGradient id="cR" x1="515.76" x2="618.35" y1="666.32" y2="666.32" xlink:href="#a"/><linearGradient id="cS" x1="515.76" x2="618.35" y1="577.48" y2="577.48" xlink:href="#a"/><linearGradient id="cT" x1="413.18" x2="515.76" y1="577.48" y2="577.48" xlink:href="#a"/><linearGradient id="cU" x1="464.47" x2="567.06" y1="577.48" y2="577.48" xlink:href="#a"/><linearGradient id="cV" x1="413.18" x2="515.76" y1="932.85" y2="932.85" xlink:href="#a"/><linearGradient id="cW" x1="464.47" x2="567.06" y1="932.85" y2="932.85" xlink:href="#a"/><linearGradient id="cX" x1="464.47" x2="567.06" y1="844.01" y2="844.01" xlink:href="#a"/><linearGradient id="cY" x1="413.18" x2="515.76" y1="844.01" y2="844.01" xlink:href="#a"/><linearGradient id="cZ" x1="413.18" x2="515.76" y1="1110.54" y2="1110.54" xlink:href="#a"/><linearGradient id="da" x1="464.47" x2="567.06" y1="1110.54" y2="1110.54" xlink:href="#a"/><linearGradient id="db" x1="464.47" x2="567.06" y1="1021.7" y2="1021.7" xlink:href="#a"/><linearGradient id="dc" x1="413.18" x2="515.76" y1="1021.7" y2="1021.7" xlink:href="#a"/><linearGradient id="dd" x1="310.59" x2="413.18" y1="755.17" y2="755.17" xlink:href="#a"/><linearGradient id="de" x1="361.88" x2="464.47" y1="755.17" y2="755.17" xlink:href="#a"/><linearGradient id="df" x1="361.88" x2="464.47" y1="666.32" y2="666.32" xlink:href="#a"/><linearGradient id="dg" x1="310.59" x2="413.18" y1="666.32" y2="666.32" xlink:href="#a"/><linearGradient id="dh" x1="310.59" x2="413.18" y1="577.48" y2="577.48" xlink:href="#a"/><linearGradient id="di" x1="310.59" x2="413.18" y1="932.85" y2="932.85" xlink:href="#a"/><linearGradient id="dj" x1="361.88" x2="464.47" y1="932.85" y2="932.85" xlink:href="#a"/><linearGradient id="dk" x1="361.88" x2="464.47" y1="844.01" y2="844.01" xlink:href="#a"/><linearGradient id="dl" x1="310.59" x2="413.18" y1="844.01" y2="844.01" xlink:href="#a"/><linearGradient id="dm" x1="310.59" x2="413.18" y1="1110.54" y2="1110.54" xlink:href="#a"/><linearGradient id="dn" x1="361.88" x2="464.47" y1="1110.54" y2="1110.54" xlink:href="#a"/><linearGradient id="do" x1="361.88" x2="464.47" y1="1021.7" y2="1021.7" xlink:href="#a"/><linearGradient id="dp" x1="310.59" x2="413.18" y1="1021.7" y2="1021.7" xlink:href="#a"/><linearGradient id="dq" x1="208" x2="310.59" y1="755.17" y2="755.17" xlink:href="#a"/><linearGradient id="dr" x1="259.3" x2="361.88" y1="755.17" y2="755.17" xlink:href="#a"/><linearGradient id="ds" x1="259.3" x2="361.88" y1="666.32" y2="666.32" xlink:href="#a"/><linearGradient id="dt" x1="208" x2="310.59" y1="666.32" y2="666.32" xlink:href="#a"/><linearGradient id="du" x1="208" x2="310.59" y1="577.48" y2="577.48" xlink:href="#a"/><linearGradient id="dv" x1="259.3" x2="361.88" y1="577.48" y2="577.48" xlink:href="#a"/><linearGradient id="dw" x1="208" x2="310.59" y1="932.85" y2="932.85" xlink:href="#a"/><linearGradient id="dx" x1="259.3" x2="361.88" y1="932.85" y2="932.85" xlink:href="#a"/><linearGradient id="dy" x1="259.3" x2="361.88" y1="844.01" y2="844.01" xlink:href="#a"/><linearGradient id="dz" x1="208" x2="310.59" y1="844.01" y2="844.01" xlink:href="#a"/><linearGradient id="dA" x1="208" x2="310.59" y1="1110.54" y2="1110.54" xlink:href="#a"/><linearGradient id="dB" x1="259.3" x2="361.88" y1="1110.54" y2="1110.54" xlink:href="#a"/><linearGradient id="dC" x1="259.3" x2="361.88" y1="1021.7" y2="1021.7" xlink:href="#a"/><linearGradient id="dD" x1="208" x2="310.59" y1="1021.7" y2="1021.7" xlink:href="#a"/><linearGradient id="dE" x1="105.41" x2="208" y1="755.17" y2="755.17" xlink:href="#a"/><linearGradient id="dF" x1="156.71" x2="259.3" y1="755.17" y2="755.17" xlink:href="#a"/><linearGradient id="dG" x1="105.41" x2="208" y1="666.32" y2="666.32" xlink:href="#a"/><linearGradient id="dH" x1="105.41" x2="208" y1="577.48" y2="577.48" xlink:href="#a"/><linearGradient id="dI" x1="156.71" x2="259.3" y1="577.48" y2="577.48" xlink:href="#a"/><linearGradient id="dJ" x1="105.41" x2="208" y1="932.85" y2="932.85" xlink:href="#a"/><linearGradient id="dK" x1="156.71" x2="259.3" y1="932.85" y2="932.85" xlink:href="#a"/><linearGradient id="dL" x1="156.71" x2="259.3" y1="844.01" y2="844.01" xlink:href="#a"/><linearGradient id="dM" x1="105.41" x2="208" y1="844.01" y2="844.01" xlink:href="#a"/><linearGradient id="dN" x1="105.41" x2="208" y1="1110.54" y2="1110.54" xlink:href="#a"/><linearGradient id="dO" x1="156.71" x2="259.3" y1="1110.54" y2="1110.54" xlink:href="#a"/><linearGradient id="dP" x1="156.71" x2="259.3" y1="1021.7" y2="1021.7" xlink:href="#a"/><linearGradient id="dQ" x1="105.41" x2="208" y1="1021.7" y2="1021.7" xlink:href="#a"/><linearGradient id="dR" x1="720.94" x2="823.53" y1="222.11" y2="222.11" xlink:href="#a"/><linearGradient id="dS" x1="772.23" x2="874.82" y1="222.11" y2="222.11" xlink:href="#a"/><linearGradient id="dT" x1="772.23" x2="874.82" y1="133.26" y2="133.26" xlink:href="#a"/><linearGradient id="dU" x1="720.94" x2="823.53" y1="133.26" y2="133.26" xlink:href="#a"/><linearGradient id="dV" x1="720.94" x2="823.53" y1="44.42" y2="44.42" xlink:href="#a"/><linearGradient id="dW" x1="772.23" x2="874.82" y1="44.42" y2="44.42" xlink:href="#a"/><linearGradient id="dX" x1="720.94" x2="823.53" y1="399.79" y2="399.79" xlink:href="#a"/><linearGradient id="dY" x1="772.23" x2="874.82" y1="399.79" y2="399.79" xlink:href="#a"/><linearGradient id="dZ" x1="772.23" x2="874.82" y1="310.95" y2="310.95" xlink:href="#a"/><linearGradient id="ea" x1="823.53" x2="926.11" y1="310.95" y2="310.95" xlink:href="#a"/><linearGradient id="eb" x1="720.94" x2="823.53" y1="310.95" y2="310.95" xlink:href="#a"/><linearGradient id="ec" x1="720.94" x2="823.53" y1="488.64" y2="488.64" xlink:href="#a"/><linearGradient id="ed" x1="618.35" x2="720.94" y1="399.79" y2="399.79" xlink:href="#a"/><linearGradient id="ee" x1="669.65" x2="772.23" y1="310.95" y2="310.95" xlink:href="#a"/><linearGradient id="ef" x1="618.35" x2="720.94" y1="310.95" y2="310.95" xlink:href="#a"/><linearGradient id="eg" x1="618.35" x2="720.94" y1="222.11" y2="222.11" xlink:href="#a"/><linearGradient id="eh" x1="669.65" x2="772.23" y1="222.11" y2="222.11" xlink:href="#a"/><linearGradient id="ei" x1="669.65" x2="772.23" y1="488.64" y2="488.64" xlink:href="#a"/><linearGradient id="ej" x1="618.35" x2="720.94" y1="488.64" y2="488.64" xlink:href="#a"/><linearGradient id="ek" x1="515.76" x2="618.35" y1="222.11" y2="222.11" xlink:href="#a"/><linearGradient id="el" x1="567.06" x2="669.65" y1="222.11" y2="222.11" xlink:href="#a"/><linearGradient id="em" x1="567.06" x2="669.65" y1="133.26" y2="133.26" xlink:href="#a"/><linearGradient id="en" x1="618.35" x2="720.94" y1="133.26" y2="133.26" xlink:href="#a"/><linearGradient id="eo" x1="515.76" x2="618.35" y1="133.26" y2="133.26" xlink:href="#a"/><linearGradient id="ep" x1="618.35" x2="720.94" y1="44.42" y2="44.42" xlink:href="#a"/><linearGradient id="eq" x1="515.76" x2="618.35" y1="44.42" y2="44.42" xlink:href="#a"/><linearGradient id="er" x1="567.06" x2="669.65" y1="44.42" y2="44.42" xlink:href="#a"/><linearGradient id="es" x1="515.76" x2="618.35" y1="399.79" y2="399.79" xlink:href="#a"/><linearGradient id="et" x1="567.06" x2="669.65" y1="399.79" y2="399.79" xlink:href="#a"/><linearGradient id="eu" x1="515.76" x2="618.35" y1="310.95" y2="310.95" xlink:href="#a"/><linearGradient id="ev" x1="567.06" x2="669.65" y1="577.48" y2="577.48" xlink:href="#a"/><linearGradient id="ew" x1="567.06" x2="669.65" y1="488.64" y2="488.64" xlink:href="#a"/><linearGradient id="ex" x1="515.76" x2="618.35" y1="488.64" y2="488.64" xlink:href="#a"/><linearGradient id="ey" x1="464.47" x2="567.06" y1="222.11" y2="222.11" xlink:href="#a"/><linearGradient id="ez" x1="464.47" x2="567.06" y1="133.26" y2="133.26" xlink:href="#a"/><linearGradient id="eA" x1="413.18" x2="515.76" y1="133.26" y2="133.26" xlink:href="#a"/><linearGradient id="eB" x1="413.18" x2="515.76" y1="44.42" y2="44.42" xlink:href="#a"/><linearGradient id="eC" x1="464.47" x2="567.06" y1="44.42" y2="44.42" xlink:href="#a"/><linearGradient id="eD" x1="413.18" x2="515.76" y1="399.79" y2="399.79" xlink:href="#a"/><linearGradient id="eE" x1="464.47" x2="567.06" y1="399.79" y2="399.79" xlink:href="#a"/><linearGradient id="eF" x1="464.47" x2="567.06" y1="310.95" y2="310.95" xlink:href="#a"/><linearGradient id="eG" x1="413.18" x2="515.76" y1="310.95" y2="310.95" xlink:href="#a"/><linearGradient id="eH" x1="310.59" x2="413.18" y1="399.79" y2="399.79" xlink:href="#a"/><linearGradient id="eI" x1="361.88" x2="464.47" y1="399.79" y2="399.79" xlink:href="#a"/><linearGradient id="eJ" x1="310.59" x2="413.18" y1="310.95" y2="310.95" xlink:href="#a"/><linearGradient id="eK" x1="310.59" x2="413.18" y1="222.11" y2="222.11" xlink:href="#a"/><linearGradient id="eL" x1="361.88" x2="464.47" y1="222.11" y2="222.11" xlink:href="#a"/><linearGradient id="eM" x1="361.88" x2="464.47" y1="488.64" y2="488.64" xlink:href="#a"/><linearGradient id="eN" x1="413.18" x2="515.76" y1="488.64" y2="488.64" xlink:href="#a"/><linearGradient id="eO" x1="310.59" x2="413.18" y1="488.64" y2="488.64" xlink:href="#a"/><linearGradient id="eP" x1="1182.58" x2="1285.17" y1="666.32" y2="666.32" xlink:href="#a"/><linearGradient id="eQ" x1="669.65" x2="772.23" y1="133.26" y2="133.26" xlink:href="#a"/><linearGradient id="eR" x1="669.65" x2="772.23" y1="44.42" y2="44.42" xlink:href="#a"/><linearGradient id="eS" x1="567.06" x2="669.65" y1="666.32" y2="666.32" xlink:href="#a"/><linearGradient id="eT" x1="464.47" x2="567.06" y1="488.64" y2="488.64" xlink:href="#a"/><linearGradient id="eU" x1="361.88" x2="464.47" y1="133.26" y2="133.26" xlink:href="#a"/><linearGradient id="eV" x1="310.59" x2="413.18" y1="133.26" y2="133.26" xlink:href="#a"/><linearGradient id="eW" x1="310.59" x2="413.18" y1="44.42" y2="44.42" xlink:href="#a"/><linearGradient id="eX" x1="361.88" x2="464.47" y1="44.42" y2="44.42" xlink:href="#a"/><linearGradient id="eY" x1="259.3" x2="361.88" y1="222.11" y2="222.11" xlink:href="#a"/><linearGradient id="eZ" x1="259.3" x2="361.88" y1="133.26" y2="133.26" xlink:href="#a"/><linearGradient id="fa" x1="208" x2="310.59" y1="133.26" y2="133.26" xlink:href="#a"/><linearGradient id="fb" x1="208" x2="310.59" y1="44.42" y2="44.42" xlink:href="#a"/><linearGradient id="fc" x1="259.3" x2="361.88" y1="44.42" y2="44.42" xlink:href="#a"/><linearGradient id="fd" x1="208" x2="310.59" y1="399.79" y2="399.79" xlink:href="#a"/><linearGradient id="fe" x1="259.3" x2="361.88" y1="399.79" y2="399.79" xlink:href="#a"/><linearGradient id="ff" x1="259.3" x2="361.88" y1="310.95" y2="310.95" xlink:href="#a"/><linearGradient id="fg" x1="208" x2="310.59" y1="310.95" y2="310.95" xlink:href="#a"/><linearGradient id="fh" x1="105.41" x2="208" y1="222.11" y2="222.11" xlink:href="#a"/><linearGradient id="fi" x1="156.71" x2="259.3" y1="222.11" y2="222.11" xlink:href="#a"/><linearGradient id="fj" x1="156.71" x2="259.3" y1="133.26" y2="133.26" xlink:href="#a"/><linearGradient id="fk" x1="105.41" x2="208" y1="133.26" y2="133.26" xlink:href="#a"/><linearGradient id="fl" x1="105.41" x2="208" y1="44.42" y2="44.42" xlink:href="#a"/><linearGradient id="fm" x1="156.71" x2="259.3" y1="44.42" y2="44.42" xlink:href="#a"/><linearGradient id="fn" x1="105.41" x2="208" y1="399.79" y2="399.79" xlink:href="#a"/><linearGradient id="fo" x1="156.71" x2="259.3" y1="399.79" y2="399.79" xlink:href="#a"/><linearGradient id="fp" x1="156.71" x2="259.3" y1="310.95" y2="310.95" xlink:href="#a"/><linearGradient id="fq" x1="105.41" x2="208" y1="310.95" y2="310.95" xlink:href="#a"/><linearGradient id="fr" x1="2.83" x2="105.41" y1="222.11" y2="222.11" xlink:href="#a"/><linearGradient id="fs" x1="54.12" x2="156.71" y1="222.11" y2="222.11" xlink:href="#a"/><linearGradient id="ft" x1="54.12" x2="156.71" y1="133.26" y2="133.26" xlink:href="#a"/><linearGradient id="fu" x1="2.83" x2="105.41" y1="133.26" y2="133.26" xlink:href="#a"/><linearGradient id="fv" x1="2.83" x2="105.41" y1="44.42" y2="44.42" xlink:href="#a"/><linearGradient id="fw" x1="54.12" x2="156.71" y1="44.42" y2="44.42" xlink:href="#a"/><linearGradient id="fx" x1="2.83" x2="105.41" y1="399.79" y2="399.79" xlink:href="#a"/><linearGradient id="fy" x1="54.12" x2="156.71" y1="399.79" y2="399.79" xlink:href="#a"/><linearGradient id="fz" x1="54.12" x2="156.71" y1="310.95" y2="310.95" xlink:href="#a"/><linearGradient id="fA" x1="2.83" x2="105.41" y1="310.95" y2="310.95" xlink:href="#a"/><linearGradient id="fB" x1="259.3" x2="361.88" y1="488.64" y2="488.64" xlink:href="#a"/><linearGradient id="fC" x1="208" x2="310.59" y1="488.64" y2="488.64" xlink:href="#a"/><linearGradient id="fD" x1="156.71" x2="259.3" y1="488.64" y2="488.64" xlink:href="#a"/><linearGradient id="fE" x1="105.41" x2="208" y1="488.64" y2="488.64" xlink:href="#a"/><linearGradient id="fF" x1="2.83" x2="105.41" y1="577.48" y2="577.48" xlink:href="#a"/><linearGradient id="fG" x1="54.12" x2="156.71" y1="577.48" y2="577.48" xlink:href="#a"/><linearGradient id="fH" x1="54.12" x2="156.71" y1="488.64" y2="488.64" xlink:href="#a"/><linearGradient id="fI" x1="2.83" x2="105.41" y1="488.64" y2="488.64" xlink:href="#a"/><linearGradient id="fJ" x1="2.83" x2="105.41" y1="755.17" y2="755.17" xlink:href="#a"/><linearGradient id="fK" x1="54.12" x2="156.71" y1="755.17" y2="755.17" xlink:href="#a"/><linearGradient id="fL" x1="54.12" x2="156.71" y1="666.32" y2="666.32" xlink:href="#a"/><linearGradient id="fM" x1="2.83" x2="105.41" y1="666.32" y2="666.32" xlink:href="#a"/><linearGradient id="fN" x1="2.83" x2="105.41" y1="932.85" y2="932.85" xlink:href="#a"/><linearGradient id="fO" x1="54.12" x2="156.71" y1="932.85" y2="932.85" xlink:href="#a"/><linearGradient id="fP" x1="54.12" x2="156.71" y1="844.01" y2="844.01" xlink:href="#a"/><linearGradient id="fQ" x1="2.83" x2="105.41" y1="844.01" y2="844.01" xlink:href="#a"/><linearGradient id="fR" x1="2.83" x2="105.41" y1="1110.54" y2="1110.54" xlink:href="#a"/><linearGradient id="fS" x1="54.12" x2="156.71" y1="1110.54" y2="1110.54" xlink:href="#a"/><linearGradient id="fT" x1="54.12" x2="156.71" y1="1021.7" y2="1021.7" xlink:href="#a"/><linearGradient id="fU" x1="2.83" x2="105.41" y1="1021.7" y2="1021.7" xlink:href="#a"/><linearGradient id="fV" x1="834.8" x2="937.38" y1="310.95" y2="310.95" xlink:href="#a"/><linearGradient id="fW" x1="937.38" x2="1039.97" y1="488.64" y2="488.64" xlink:href="#a"/><linearGradient id="fX" x1="834.8" x2="937.38" y1="666.32" y2="666.32" xlink:href="#a"/><linearGradient id="fY" x1="361.88" x2="464.47" y1="577.48" y2="577.48" xlink:href="#a"/><linearGradient id="fZ" x1="680.92" x2="783.5" y1="133.26" y2="133.26" xlink:href="#a"/><linearGradient id="ga" x1="578.33" x2="680.92" y1="133.26" y2="133.26" xlink:href="#a"/></defs><g clip-path="url(#b)" data-name="Layer 2"><g opacity=".9"><path fill="url(#a)" d="M1490.3 177.7l51.3 88.8h-102.5l51.2-88.8"/><path fill="url(#c)" d="M1387.8 177.7l51.3 88.8h-102.6l51.3-88.8"/><path fill="url(#d)" d="M1439.1 266.5l-51.3-88.8h102.5l-51.2 88.8"/><path fill="url(#e)" d="M1439.1 88.8l51.2 88.9h-102.5l51.3-88.9" opacity=".5"/><path fill="url(#f)" d="M1490.3 177.7l-51.2-88.9h102.5l-51.3 88.9" opacity=".5"/><path fill="url(#g)" d="M1387.8 177.7l-51.3-88.9h102.6l-51.3 88.9" opacity=".5"/><path fill="url(#h)" d="M1490.3 0l51.3 88.8h-102.5L1490.3 0" opacity=".5"/><g opacity=".5"><path fill="url(#i)" d="M1387.8 0l51.3 88.8h-102.6L1387.8 0"/><path fill="url(#j)" d="M1439.1 88.8L1387.8 0h102.5l-51.2 88.8"/></g><g opacity=".8"><path fill="url(#k)" d="M1490.3 355.4l51.3 88.8h-102.5l51.2-88.8"/><path fill="url(#l)" d="M1387.8 355.4l51.3 88.8h-102.6l51.3-88.8"/><path fill="url(#m)" d="M1439.1 444.2l-51.3-88.8h102.5l-51.2 88.8"/><path fill="url(#n)" d="M1439.1 266.5l51.2 88.9h-102.5l51.3-88.9"/><path fill="url(#o)" d="M1490.3 355.4l-51.2-88.9h102.5l-51.3 88.9"/><path fill="url(#p)" d="M1387.8 355.4l-51.3-88.9h102.6l-51.3 88.9"/><path fill="url(#a)" d="M1490.3 177.7l51.3 88.8h-102.5l51.2-88.8"/><g><path fill="url(#c)" d="M1387.8 177.7l51.3 88.8h-102.6l51.3-88.8"/><path fill="url(#d)" d="M1439.1 266.5l-51.3-88.8h102.5l-51.2 88.8"/></g></g><path fill="url(#q)" d="M1490.3 533.1l51.3 88.8h-102.5l51.2-88.8"/><path fill="url(#r)" d="M1387.8 533.1l51.3 88.8h-102.6l51.3-88.8"/><path fill="url(#s)" d="M1439.1 621.9l-51.3-88.8h102.5l-51.2 88.8"/><path fill="url(#t)" d="M1439.1 444.2l51.2 88.9h-102.5l51.3-88.9"/><path fill="url(#u)" d="M1490.3 533.1l-51.2-88.9h102.5l-51.3 88.9"/><path fill="url(#v)" d="M1387.8 533.1l-51.3-88.9h102.6l-51.3 88.9"/><path fill="url(#k)" d="M1490.3 355.4l51.3 88.8h-102.5l51.2-88.8"/><path fill="url(#l)" d="M1387.8 355.4l51.3 88.8h-102.6l51.3-88.8"/><path fill="url(#m)" d="M1439.1 444.2l-51.3-88.8h102.5l-51.2 88.8"/><path fill="url(#w)" d="M1490.3 710.7l51.3 88.9h-102.5l51.2-88.9"/><path fill="url(#x)" d="M1387.8 710.7l51.3 88.9h-102.6l51.3-88.9"/><path fill="url(#y)" d="M1439.1 799.6l-51.3-88.9h102.5l-51.2 88.9"/><path fill="url(#z)" d="M1439.1 621.9l51.2 88.8h-102.5l51.3-88.8"/><path fill="url(#A)" d="M1490.3 710.7l-51.2-88.8h102.5l-51.3 88.8"/><path fill="url(#B)" d="M1387.8 710.7l-51.3-88.8h102.6l-51.3 88.8"/><path fill="url(#q)" d="M1490.3 533.1l51.3 88.8h-102.5l51.2-88.8"/><path fill="url(#r)" d="M1387.8 533.1l51.3 88.8h-102.6l51.3-88.8"/><path fill="url(#s)" d="M1439.1 621.9l-51.3-88.8h102.5l-51.2 88.8"/><path fill="url(#C)" d="M1490.3 888.4l51.3 88.9h-102.5l51.2-88.9"/><path fill="url(#D)" d="M1387.8 888.4l51.3 88.9h-102.6l51.3-88.9"/><path fill="url(#E)" d="M1439.1 977.3l-51.3-88.9h102.5l-51.2 88.9"/><path fill="url(#F)" d="M1439.1 799.6l51.2 88.8h-102.5l51.3-88.8"/><path fill="url(#G)" d="M1490.3 888.4l-51.2-88.8h102.5l-51.3 88.8"/><path fill="url(#H)" d="M1387.8 888.4l-51.3-88.8h102.6l-51.3 88.8"/><path fill="url(#w)" d="M1490.3 710.7l51.3 88.9h-102.5l51.2-88.9"/><path fill="url(#x)" d="M1387.8 710.7l51.3 88.9h-102.6l51.3-88.9"/><path fill="url(#y)" d="M1439.1 799.6l-51.3-88.9h102.5l-51.2 88.9"/><path fill="url(#I)" d="M1490.3 1066.1l51.3 88.9h-102.5l51.2-88.9"/><path fill="url(#J)" d="M1387.8 1066.1l51.3 88.9h-102.6l51.3-88.9"/><path fill="url(#K)" d="M1439.1 1155l-51.3-88.9h102.5l-51.2 88.9"/><path fill="url(#L)" d="M1439.1 977.3l51.2 88.8h-102.5l51.3-88.8"/><path fill="url(#M)" d="M1490.3 1066.1l-51.2-88.8h102.5l-51.3 88.8"/><path fill="url(#N)" d="M1387.8 1066.1l-51.3-88.8h102.6l-51.3 88.8"/><path fill="url(#C)" d="M1490.3 888.4l51.3 88.9h-102.5l51.2-88.9"/><g><path fill="url(#D)" d="M1387.8 888.4l51.3 88.9h-102.6l51.3-88.9"/><path fill="url(#E)" d="M1439.1 977.3l-51.3-88.9h102.5l-51.2 88.9"/></g><g><path fill="url(#c)" d="M1387.8 177.7l51.3 88.8h-102.6l51.3-88.8"/><path fill="url(#O)" d="M1285.2 177.7l51.3 88.8h-102.6l51.3-88.8"/><path fill="url(#P)" d="M1336.5 266.5l-51.3-88.8h102.6l-51.3 88.8"/><path fill="url(#Q)" d="M1336.5 88.8l51.3 88.9h-102.6l51.3-88.9" opacity=".5"/><path fill="url(#g)" d="M1387.8 177.7l-51.3-88.9h102.6l-51.3 88.9" opacity=".5"/><path fill="url(#R)" d="M1285.2 177.7l-51.3-88.9h102.6l-51.3 88.9" opacity=".5"/><g opacity=".5"><path fill="url(#i)" d="M1387.8 0l51.3 88.8h-102.6L1387.8 0"/></g><g opacity=".5"><path fill="url(#S)" d="M1285.2 0l51.3 88.8h-102.6L1285.2 0"/><path fill="url(#T)" d="M1336.5 88.8L1285.2 0h102.6l-51.3 88.8"/></g></g><g opacity=".8"><path fill="url(#l)" d="M1387.8 355.4l51.3 88.8h-102.6l51.3-88.8"/><path fill="url(#U)" d="M1285.2 355.4l51.3 88.8h-102.6l51.3-88.8"/><path fill="url(#V)" d="M1336.5 444.2l-51.3-88.8h102.6l-51.3 88.8"/><path fill="url(#W)" d="M1336.5 266.5l51.3 88.9h-102.6l51.3-88.9"/><path fill="url(#p)" d="M1387.8 355.4l-51.3-88.9h102.6l-51.3 88.9"/><path fill="url(#X)" d="M1285.2 355.4l-51.3-88.9h102.6l-51.3 88.9"/><path fill="url(#c)" d="M1387.8 177.7l51.3 88.8h-102.6l51.3-88.8"/><g><path fill="url(#O)" d="M1285.2 177.7l51.3 88.8h-102.6l51.3-88.8"/><path fill="url(#P)" d="M1336.5 266.5l-51.3-88.8h102.6l-51.3 88.8"/></g></g><g><path fill="url(#r)" d="M1387.8 533.1l51.3 88.8h-102.6l51.3-88.8"/><path fill="url(#Y)" d="M1285.2 533.1l51.3 88.8h-102.6l51.3-88.8"/><path fill="url(#Z)" d="M1336.5 621.9l-51.3-88.8h102.6l-51.3 88.8"/><path fill="url(#aa)" d="M1336.5 444.2l51.3 88.9h-102.6l51.3-88.9"/><path fill="url(#v)" d="M1387.8 533.1l-51.3-88.9h102.6l-51.3 88.9"/><path fill="url(#ab)" d="M1285.2 533.1l-51.3-88.9h102.6l-51.3 88.9"/><path fill="url(#l)" d="M1387.8 355.4l51.3 88.8h-102.6l51.3-88.8"/><g><path fill="url(#U)" d="M1285.2 355.4l51.3 88.8h-102.6l51.3-88.8"/><path fill="url(#V)" d="M1336.5 444.2l-51.3-88.8h102.6l-51.3 88.8"/></g></g><g><path fill="url(#x)" d="M1387.8 710.7l51.3 88.9h-102.6l51.3-88.9"/><path fill="url(#ac)" d="M1285.2 710.7l51.3 88.9h-102.6l51.3-88.9"/><path fill="url(#ad)" d="M1336.5 799.6l-51.3-88.9h102.6l-51.3 88.9"/><path fill="url(#ae)" d="M1336.5 621.9l51.3 88.8h-102.6l51.3-88.8"/><path fill="url(#B)" d="M1387.8 710.7l-51.3-88.8h102.6l-51.3 88.8"/><path fill="url(#af)" d="M1285.2 710.7l-51.3-88.8h102.6l-51.3 88.8"/><path fill="url(#r)" d="M1387.8 533.1l51.3 88.8h-102.6l51.3-88.8"/><g><path fill="url(#Y)" d="M1285.2 533.1l51.3 88.8h-102.6l51.3-88.8"/><path fill="url(#Z)" d="M1336.5 621.9l-51.3-88.8h102.6l-51.3 88.8"/></g></g><g><path fill="url(#D)" d="M1387.8 888.4l51.3 88.9h-102.6l51.3-88.9"/><path fill="url(#ag)" d="M1285.2 888.4l51.3 88.9h-102.6l51.3-88.9"/><path fill="url(#ah)" d="M1336.5 977.3l-51.3-88.9h102.6l-51.3 88.9"/><path fill="url(#ai)" d="M1336.5 799.6l51.3 88.8h-102.6l51.3-88.8"/><path fill="url(#H)" d="M1387.8 888.4l-51.3-88.8h102.6l-51.3 88.8"/><path fill="url(#aj)" d="M1285.2 888.4l-51.3-88.8h102.6l-51.3 88.8"/><path fill="url(#x)" d="M1387.8 710.7l51.3 88.9h-102.6l51.3-88.9"/><g><path fill="url(#ac)" d="M1285.2 710.7l51.3 88.9h-102.6l51.3-88.9"/><path fill="url(#ad)" d="M1336.5 799.6l-51.3-88.9h102.6l-51.3 88.9"/></g></g><g><path fill="url(#J)" d="M1387.8 1066.1l51.3 88.9h-102.6l51.3-88.9"/><path fill="url(#ak)" d="M1285.2 1066.1l51.3 88.9h-102.6l51.3-88.9"/><path fill="url(#al)" d="M1336.5 1155l-51.3-88.9h102.6l-51.3 88.9"/><path fill="url(#am)" d="M1336.5 977.3l51.3 88.8h-102.6l51.3-88.8"/><path fill="url(#N)" d="M1387.8 1066.1l-51.3-88.8h102.6l-51.3 88.8"/><path fill="url(#an)" d="M1285.2 1066.1l-51.3-88.8h102.6l-51.3 88.8"/><path fill="url(#D)" d="M1387.8 888.4l51.3 88.9h-102.6l51.3-88.9"/><g><path fill="url(#ag)" d="M1285.2 888.4l51.3 88.9h-102.6l51.3-88.9"/><path fill="url(#ah)" d="M1336.5 977.3l-51.3-88.9h102.6l-51.3 88.9"/></g></g><g><path fill="url(#O)" d="M1285.2 177.7l51.3 88.8h-102.6l51.3-88.8"/><path fill="url(#ao)" d="M1182.6 177.7l51.3 88.8h-102.6l51.3-88.8"/><path fill="url(#ap)" d="M1233.9 266.5l-51.3-88.8h102.6l-51.3 88.8"/><path fill="url(#aq)" d="M1233.9 88.8l51.3 88.9h-102.6l51.3-88.9" opacity=".5"/><path fill="url(#R)" d="M1285.2 177.7l-51.3-88.9h102.6l-51.3 88.9" opacity=".5"/><path fill="url(#ar)" d="M1182.6 177.7l-51.3-88.9h102.6l-51.3 88.9" opacity=".5"/><g opacity=".5"><path fill="url(#S)" d="M1285.2 0l51.3 88.8h-102.6L1285.2 0"/></g><g opacity=".5"><path fill="url(#as)" d="M1182.6 0l51.3 88.8h-102.6L1182.6 0"/><path fill="url(#at)" d="M1233.9 88.8L1182.6 0h102.6l-51.3 88.8"/></g></g><g opacity=".8"><path fill="url(#U)" d="M1285.2 355.4l51.3 88.8h-102.6l51.3-88.8"/><path fill="url(#au)" d="M1182.6 355.4l51.3 88.8h-102.6l51.3-88.8"/><path fill="url(#av)" d="M1233.9 444.2l-51.3-88.8h102.6l-51.3 88.8"/><path fill="url(#aw)" d="M1233.9 266.5l51.3 88.9h-102.6l51.3-88.9"/><path fill="url(#X)" d="M1285.2 355.4l-51.3-88.9h102.6l-51.3 88.9"/><path fill="url(#ax)" d="M1182.6 355.4l-51.3-88.9h102.6l-51.3 88.9"/><path fill="url(#O)" d="M1285.2 177.7l51.3 88.8h-102.6l51.3-88.8"/><g><path fill="url(#ao)" d="M1182.6 177.7l51.3 88.8h-102.6l51.3-88.8"/><path fill="url(#ap)" d="M1233.9 266.5l-51.3-88.8h102.6l-51.3 88.8"/></g></g><g><path fill="url(#Y)" d="M1285.2 533.1l51.3 88.8h-102.6l51.3-88.8"/><path fill="url(#ay)" d="M1182.6 533.1l51.3 88.8h-102.6l51.3-88.8"/><path fill="url(#az)" d="M1233.9 621.9l-51.3-88.8h102.6l-51.3 88.8"/><path fill="url(#aA)" d="M1233.9 444.2l51.3 88.9h-102.6l51.3-88.9"/><path fill="url(#ab)" d="M1285.2 533.1l-51.3-88.9h102.6l-51.3 88.9"/><path fill="url(#aB)" d="M1182.6 533.1l-51.3-88.9h102.6l-51.3 88.9"/><path fill="url(#U)" d="M1285.2 355.4l51.3 88.8h-102.6l51.3-88.8"/><g><path fill="url(#au)" d="M1182.6 355.4l51.3 88.8h-102.6l51.3-88.8"/><path fill="url(#av)" d="M1233.9 444.2l-51.3-88.8h102.6l-51.3 88.8"/></g></g><g><path fill="url(#ag)" d="M1285.2 888.4l51.3 88.9h-102.6l51.3-88.9"/><path fill="url(#aC)" d="M1182.6 888.4l51.3 88.9h-102.6l51.3-88.9"/><path fill="url(#aD)" d="M1233.9 977.3l-51.3-88.9h102.6l-51.3 88.9"/><path fill="url(#aE)" d="M1233.9 799.6l51.3 88.8h-102.6l51.3-88.8"/><path fill="url(#aj)" d="M1285.2 888.4l-51.3-88.8h102.6l-51.3 88.8"/><path fill="url(#aF)" d="M1182.6 888.4l-51.3-88.8h102.6l-51.3 88.8"/><path fill="url(#ac)" d="M1285.2 710.7l51.3 88.9h-102.6l51.3-88.9"/><g><path fill="url(#aG)" d="M1182.6 710.7l51.3 88.9h-102.6l51.3-88.9"/><path fill="url(#aH)" d="M1233.9 799.6l-51.3-88.9h102.6l-51.3 88.9"/></g></g><g><path fill="url(#ak)" d="M1285.2 1066.1l51.3 88.9h-102.6l51.3-88.9"/><path fill="url(#aI)" d="M1182.6 1066.1l51.3 88.9h-102.6l51.3-88.9"/><path fill="url(#aJ)" d="M1233.9 1155l-51.3-88.9h102.6l-51.3 88.9"/><path fill="url(#aK)" d="M1233.9 977.3l51.3 88.8h-102.6l51.3-88.8"/><path fill="url(#an)" d="M1285.2 1066.1l-51.3-88.8h102.6l-51.3 88.8"/><path fill="url(#aL)" d="M1182.6 1066.1l-51.3-88.8h102.6l-51.3 88.8"/><path fill="url(#ag)" d="M1285.2 888.4l51.3 88.9h-102.6l51.3-88.9"/><g><path fill="url(#aC)" d="M1182.6 888.4l51.3 88.9h-102.6l51.3-88.9"/><path fill="url(#aD)" d="M1233.9 977.3l-51.3-88.9h102.6l-51.3 88.9"/></g></g><g><path fill="url(#ao)" d="M1182.6 177.7l51.3 88.8h-102.6l51.3-88.8"/><path fill="url(#aM)" d="M1080 177.7l51.3 88.8h-102.6l51.3-88.8"/><path fill="url(#aN)" d="M1131.3 266.5l-51.3-88.8h102.6l-51.3 88.8"/><path fill="url(#aO)" d="M1131.3 88.8l51.3 88.9H1080l51.3-88.9" opacity=".5"/><path fill="url(#ar)" d="M1182.6 177.7l-51.3-88.9h102.6l-51.3 88.9" opacity=".5"/><path fill="url(#aP)" d="M1080 177.7l-51.3-88.9h102.6l-51.3 88.9" opacity=".5"/><g opacity=".5"><path fill="url(#as)" d="M1182.6 0l51.3 88.8h-102.6L1182.6 0"/></g><g opacity=".5"><path fill="url(#aQ)" d="M1080 0l51.3 88.8h-102.6L1080 0"/><path fill="url(#aR)" d="M1131.3 88.8L1080 0h102.6l-51.3 88.8"/></g></g><g opacity=".8"><path fill="url(#au)" d="M1182.6 355.4l51.3 88.8h-102.6l51.3-88.8"/><path fill="url(#aS)" d="M1080 355.4l51.3 88.8h-102.6l51.3-88.8"/><path fill="url(#aT)" d="M1131.3 444.2l-51.3-88.8h102.6l-51.3 88.8"/><path fill="url(#aU)" d="M1131.3 266.5l51.3 88.9H1080l51.3-88.9"/><path fill="url(#ax)" d="M1182.6 355.4l-51.3-88.9h102.6l-51.3 88.9"/><path fill="url(#aV)" d="M1080 355.4l-51.3-88.9h102.6l-51.3 88.9"/><path fill="url(#ao)" d="M1182.6 177.7l51.3 88.8h-102.6l51.3-88.8"/><g><path fill="url(#aM)" d="M1080 177.7l51.3 88.8h-102.6l51.3-88.8"/><path fill="url(#aN)" d="M1131.3 266.5l-51.3-88.8h102.6l-51.3 88.8"/></g></g><g><path fill="url(#ay)" d="M1182.6 533.1l51.3 88.8h-102.6l51.3-88.8"/><path fill="url(#aW)" d="M1080 533.1l51.3 88.8h-102.6l51.3-88.8"/><path fill="url(#aX)" d="M1131.3 621.9l-51.3-88.8h102.6l-51.3 88.8"/><path fill="url(#aY)" d="M1131.3 444.2l51.3 88.9H1080l51.3-88.9"/><path fill="url(#aB)" d="M1182.6 533.1l-51.3-88.9h102.6l-51.3 88.9"/><path fill="url(#aZ)" d="M1080 533.1l-51.3-88.9h102.6l-51.3 88.9"/><path fill="url(#au)" d="M1182.6 355.4l51.3 88.8h-102.6l51.3-88.8"/><g><path fill="url(#aS)" d="M1080 355.4l51.3 88.8h-102.6l51.3-88.8"/><path fill="url(#aT)" d="M1131.3 444.2l-51.3-88.8h102.6l-51.3 88.8"/></g></g><g><path fill="url(#aG)" d="M1182.6 710.7l51.3 88.9h-102.6l51.3-88.9"/><path fill="url(#ba)" d="M1080 710.7l51.3 88.9h-102.6l51.3-88.9"/><path fill="url(#bb)" d="M1131.3 799.6l-51.3-88.9h102.6l-51.3 88.9"/><path fill="url(#bc)" d="M1131.3 621.9l51.3 88.8H1080l51.3-88.8"/><path fill="url(#bd)" d="M1182.6 710.7l-51.3-88.8h102.6l-51.3 88.8"/><path fill="url(#be)" d="M1080 710.7l-51.3-88.8h102.6l-51.3 88.8"/><path fill="url(#ay)" d="M1182.6 533.1l51.3 88.8h-102.6l51.3-88.8"/><path fill="url(#aX)" d="M1131.3 621.9l-51.3-88.8h102.6l-51.3 88.8"/></g><g><path fill="url(#aC)" d="M1182.6 888.4l51.3 88.9h-102.6l51.3-88.9"/><path fill="url(#bf)" d="M1080 888.4l51.3 88.9h-102.6l51.3-88.9"/><path fill="url(#bg)" d="M1131.3 977.3l-51.3-88.9h102.6l-51.3 88.9"/><path fill="url(#bh)" d="M1131.3 799.6l51.3 88.8H1080l51.3-88.8"/><path fill="url(#aF)" d="M1182.6 888.4l-51.3-88.8h102.6l-51.3 88.8"/><path fill="url(#bi)" d="M1080 888.4l-51.3-88.8h102.6l-51.3 88.8"/><path fill="url(#aG)" d="M1182.6 710.7l51.3 88.9h-102.6l51.3-88.9"/><g><path fill="url(#ba)" d="M1080 710.7l51.3 88.9h-102.6l51.3-88.9"/><path fill="url(#bb)" d="M1131.3 799.6l-51.3-88.9h102.6l-51.3 88.9"/></g></g><g><path fill="url(#aI)" d="M1182.6 1066.1l51.3 88.9h-102.6l51.3-88.9"/><path fill="url(#bj)" d="M1080 1066.1l51.3 88.9h-102.6l51.3-88.9"/><path fill="url(#bk)" d="M1131.3 1155l-51.3-88.9h102.6l-51.3 88.9"/><path fill="url(#bl)" d="M1131.3 977.3l51.3 88.8H1080l51.3-88.8"/><path fill="url(#aL)" d="M1182.6 1066.1l-51.3-88.8h102.6l-51.3 88.8"/><path fill="url(#bm)" d="M1080 1066.1l-51.3-88.8h102.6l-51.3 88.8"/><path fill="url(#aC)" d="M1182.6 888.4l51.3 88.9h-102.6l51.3-88.9"/><g><path fill="url(#bf)" d="M1080 888.4l51.3 88.9h-102.6l51.3-88.9"/><path fill="url(#bg)" d="M1131.3 977.3l-51.3-88.9h102.6l-51.3 88.9"/></g></g><g><path fill="url(#aM)" d="M1080 177.7l51.3 88.8h-102.6l51.3-88.8"/><path fill="url(#bn)" d="M977.4 177.7l51.3 88.8H926.1l51.3-88.8"/><path fill="url(#bo)" d="M1028.7 266.5l-51.3-88.8H1080l-51.3 88.8"/><path fill="url(#bp)" d="M1028.7 88.8l51.3 88.9H977.4l51.3-88.9" opacity=".5"/><path fill="url(#aP)" d="M1080 177.7l-51.3-88.9h102.6l-51.3 88.9" opacity=".5"/><path fill="url(#bq)" d="M977.4 177.7l-51.3-88.9h102.6l-51.3 88.9" opacity=".5"/><g opacity=".5"><path fill="url(#aQ)" d="M1080 0l51.3 88.8h-102.6L1080 0"/></g><g opacity=".5"><path fill="url(#br)" d="M977.4 0l51.3 88.8H926.1L977.4 0"/><path fill="url(#bs)" d="M1028.7 88.8L977.4 0H1080l-51.3 88.8"/></g></g><g opacity=".8"><path fill="url(#aS)" d="M1080 355.4l51.3 88.8h-102.6l51.3-88.8"/><path fill="url(#bt)" d="M977.4 355.4l51.3 88.8H926.1l51.3-88.8"/><path fill="url(#bu)" d="M1028.7 444.2l-51.3-88.8H1080l-51.3 88.8"/><path fill="url(#bv)" d="M1028.7 266.5l51.3 88.9H977.4l51.3-88.9"/><path fill="url(#aV)" d="M1080 355.4l-51.3-88.9h102.6l-51.3 88.9"/><path fill="url(#bw)" d="M977.4 355.4l-51.3-88.9h102.6l-51.3 88.9"/><path fill="url(#aM)" d="M1080 177.7l51.3 88.8h-102.6l51.3-88.8"/><path fill="url(#bo)" d="M1028.7 266.5l-51.3-88.8H1080l-51.3 88.8"/></g><g opacity=".5"><path fill="url(#bx)" d="M977.4 533.1l51.3 88.8H926.1l51.3-88.8"/><path fill="url(#by)" d="M1028.7 621.9l-51.3-88.8H1080l-51.3 88.8"/><path fill="url(#bz)" d="M977.4 533.1l-51.3-88.9h102.6l-51.3 88.9"/><path fill="url(#aS)" d="M1080 355.4l51.3 88.8h-102.6l51.3-88.8"/><path fill="url(#bu)" d="M1028.7 444.2l-51.3-88.8H1080l-51.3 88.8"/></g><g><path fill="url(#ba)" d="M1080 710.7l51.3 88.9h-102.6l51.3-88.9"/><path fill="url(#bA)" d="M977.4 710.7l51.3 88.9H926.1l51.3-88.9"/><path fill="url(#bB)" d="M1028.7 799.6l-51.3-88.9H1080l-51.3 88.9"/><path fill="url(#bC)" d="M1028.7 621.9l51.3 88.8H977.4l51.3-88.8"/><path fill="url(#be)" d="M1080 710.7l-51.3-88.8h102.6l-51.3 88.8"/><path fill="url(#bD)" d="M977.4 710.7l-51.3-88.8h102.6l-51.3 88.8"/><path fill="url(#bx)" d="M977.4 533.1l51.3 88.8H926.1l51.3-88.8"/></g><g opacity=".5"><path fill="url(#bf)" d="M1080 888.4l51.3 88.9h-102.6l51.3-88.9"/><path fill="url(#bE)" d="M977.4 888.4l51.3 88.9H926.1l51.3-88.9"/><path fill="url(#bF)" d="M1028.7 977.3l-51.3-88.9H1080l-51.3 88.9"/><path fill="url(#bG)" d="M1028.7 799.6l51.3 88.8H977.4l51.3-88.8"/><path fill="url(#bi)" d="M1080 888.4l-51.3-88.8h102.6l-51.3 88.8"/><path fill="url(#bH)" d="M977.4 888.4l-51.3-88.8h102.6l-51.3 88.8"/><path fill="url(#ba)" d="M1080 710.7l51.3 88.9h-102.6l51.3-88.9"/><path fill="url(#bA)" d="M977.4 710.7l51.3 88.9H926.1l51.3-88.9"/></g><g><path fill="url(#bj)" d="M1080 1066.1l51.3 88.9h-102.6l51.3-88.9"/><path fill="url(#bI)" d="M977.4 1066.1l51.3 88.9H926.1l51.3-88.9"/><path fill="url(#bJ)" d="M1028.7 1155l-51.3-88.9H1080l-51.3 88.9"/><path fill="url(#bK)" d="M1028.7 977.3l51.3 88.8H977.4l51.3-88.8"/><path fill="url(#bm)" d="M1080 1066.1l-51.3-88.8h102.6l-51.3 88.8"/><path fill="url(#bL)" d="M977.4 1066.1l-51.3-88.8h102.6l-51.3 88.8"/><path fill="url(#bf)" d="M1080 888.4l51.3 88.9h-102.6l51.3-88.9"/><g><path fill="url(#bE)" d="M977.4 888.4l51.3 88.9H926.1l51.3-88.9"/><path fill="url(#bF)" d="M1028.7 977.3l-51.3-88.9H1080l-51.3 88.9"/></g></g><g><path fill="url(#bM)" d="M874.8 177.7l51.3 88.8H823.5l51.3-88.8"/><path fill="url(#bN)" d="M926.1 266.5l-51.3-88.8h102.6l-51.3 88.8"/><path fill="url(#bO)" d="M926.1 88.8l51.3 88.9H874.8l51.3-88.9" opacity=".5"/><path fill="url(#bq)" d="M977.4 177.7l-51.3-88.9h102.6l-51.3 88.9" opacity=".5"/><path fill="url(#bP)" d="M874.8 177.7l-51.3-88.9h102.6l-51.3 88.9" opacity=".5"/><g opacity=".5"><path fill="url(#br)" d="M977.4 0l51.3 88.8H926.1L977.4 0"/></g><g opacity=".5"><path fill="url(#bQ)" d="M874.8 0l51.3 88.8H823.5L874.8 0"/><path fill="url(#bR)" d="M926.1 88.8L874.8 0h102.6l-51.3 88.8"/></g></g><g><path fill="url(#bx)" d="M977.4 533.1l51.3 88.8H926.1l51.3-88.8"/><path fill="url(#bS)" d="M874.8 533.1l51.3 88.8H823.5l51.3-88.8" opacity=".4"/><path fill="url(#bT)" d="M926.1 621.9l-51.3-88.8h102.6l-51.3 88.8"/><path fill="url(#bU)" d="M926.1 444.2l51.3 88.9H874.8l51.3-88.9" opacity=".7"/><path fill="url(#bz)" d="M977.4 533.1l-51.3-88.9h102.6l-51.3 88.9"/><path fill="url(#bV)" d="M874.8 533.1l-51.3-88.9h102.6l-51.3 88.9"/><path fill="url(#bW)" d="M926.1 444.2l-51.3-88.8h102.6l-51.3 88.8"/></g><g opacity=".5"><path fill="url(#bE)" d="M977.4 888.4l51.3 88.9H926.1l51.3-88.9"/><path fill="url(#bX)" d="M874.8 888.4l51.3 88.9H823.5l51.3-88.9"/><path fill="url(#bY)" d="M926.1 977.3l-51.3-88.9h102.6l-51.3 88.9"/><path fill="url(#bZ)" d="M926.1 799.6l51.3 88.8H874.8l51.3-88.8"/><path fill="url(#bH)" d="M977.4 888.4l-51.3-88.8h102.6l-51.3 88.8"/><path fill="url(#ca)" d="M874.8 888.4l-51.3-88.8h102.6l-51.3 88.8"/><path fill="url(#bA)" d="M977.4 710.7l51.3 88.9H926.1l51.3-88.9"/><path fill="url(#cb)" d="M874.8 710.7l51.3 88.9H823.5l51.3-88.9"/></g><g><path fill="url(#bI)" d="M977.4 1066.1l51.3 88.9H926.1l51.3-88.9"/><path fill="url(#cc)" d="M874.8 1066.1l51.3 88.9H823.5l51.3-88.9"/><path fill="url(#cd)" d="M926.1 1155l-51.3-88.9h102.6l-51.3 88.9"/><path fill="url(#ce)" d="M926.1 977.3l51.3 88.8H874.8l51.3-88.8"/><path fill="url(#bL)" d="M977.4 1066.1l-51.3-88.8h102.6l-51.3 88.8"/><path fill="url(#cf)" d="M874.8 1066.1l-51.3-88.8h102.6l-51.3 88.8"/><path fill="url(#bE)" d="M977.4 888.4l51.3 88.9H926.1l51.3-88.9"/><g><path fill="url(#bX)" d="M874.8 888.4l51.3 88.9H823.5l51.3-88.9"/><path fill="url(#bY)" d="M926.1 977.3l-51.3-88.9h102.6l-51.3 88.9"/></g></g><g opacity=".7"><path fill="url(#cb)" d="M874.8 710.7l51.3 88.9H823.5l51.3-88.9"/><path fill="url(#cg)" d="M772.2 710.7l51.3 88.9H720.9l51.3-88.9"/><path fill="url(#ch)" d="M823.5 799.6l-51.3-88.9h102.6l-51.3 88.9"/><path fill="url(#ci)" d="M823.5 621.9l51.3 88.8H772.2l51.3-88.8"/><path fill="url(#cj)" d="M874.8 710.7l-51.3-88.8h102.6l-51.3 88.8"/><path fill="url(#ck)" d="M772.2 533.1l51.3 88.8H720.9l51.3-88.8"/><g opacity=".5"><path fill="url(#bX)" d="M874.8 888.4l51.3 88.9H823.5l51.3-88.9"/><path fill="url(#cl)" d="M772.2 888.4l51.3 88.9H720.9l51.3-88.9"/><path fill="url(#cm)" d="M823.5 977.3l-51.3-88.9h102.6l-51.3 88.9"/><path fill="url(#cn)" d="M823.5 799.6l51.3 88.8H772.2l51.3-88.8"/><path fill="url(#ca)" d="M874.8 888.4l-51.3-88.8h102.6l-51.3 88.8"/><path fill="url(#co)" d="M772.2 888.4l-51.3-88.8h102.6l-51.3 88.8"/><path fill="url(#cb)" d="M874.8 710.7l51.3 88.9H823.5l51.3-88.9"/><g><path fill="url(#cg)" d="M772.2 710.7l51.3 88.9H720.9l51.3-88.9"/><path fill="url(#ch)" d="M823.5 799.6l-51.3-88.9h102.6l-51.3 88.9"/></g></g><path fill="url(#cc)" d="M874.8 1066.1l51.3 88.9H823.5l51.3-88.9"/><path fill="url(#cp)" d="M772.2 1066.1l51.3 88.9H720.9l51.3-88.9"/><path fill="url(#cq)" d="M823.5 1155l-51.3-88.9h102.6l-51.3 88.9"/><path fill="url(#cr)" d="M823.5 977.3l51.3 88.8H772.2l51.3-88.8"/><path fill="url(#cf)" d="M874.8 1066.1l-51.3-88.8h102.6l-51.3 88.8"/><path fill="url(#cs)" d="M772.2 1066.1l-51.3-88.8h102.6l-51.3 88.8"/><path fill="url(#bX)" d="M874.8 888.4l51.3 88.9H823.5l51.3-88.9"/><path fill="url(#cl)" d="M772.2 888.4l51.3 88.9H720.9l51.3-88.9"/><path fill="url(#cm)" d="M823.5 977.3l-51.3-88.9h102.6l-51.3 88.9"/><path fill="url(#cg)" d="M772.2 710.7l51.3 88.9H720.9l51.3-88.9"/><path fill="url(#ct)" d="M720.9 799.6l-51.3-88.9h102.6l-51.3 88.9"/><path fill="url(#cu)" d="M720.9 621.9l51.3 88.8H669.6l51.3-88.8"/><path fill="url(#ck)" d="M772.2 533.1l51.3 88.8H720.9l51.3-88.8"/><path fill="url(#cv)" d="M669.6 533.1l51.3 88.8H618.4l51.2-88.8"/><path fill="url(#cw)" d="M720.9 621.9l-51.3-88.8h102.6l-51.3 88.8"/><path fill="url(#cl)" d="M772.2 888.4l51.3 88.9H720.9l51.3-88.9"/><path fill="url(#cx)" d="M669.6 888.4l51.3 88.9H618.4l51.2-88.9" opacity=".6"/><path fill="url(#cy)" d="M720.9 977.3l-51.3-88.9h102.6l-51.3 88.9"/><path fill="url(#cz)" d="M720.9 799.6l51.3 88.8H669.6l51.3-88.8"/><path fill="url(#co)" d="M772.2 888.4l-51.3-88.8h102.6l-51.3 88.8"/><path fill="url(#cA)" d="M669.6 888.4l-51.2-88.8h102.5l-51.3 88.8" opacity=".6"/><path fill="url(#cg)" d="M772.2 710.7l51.3 88.9H720.9l51.3-88.9"/><path fill="url(#ct)" d="M720.9 799.6l-51.3-88.9h102.6l-51.3 88.9"/><path fill="url(#cp)" d="M772.2 1066.1l51.3 88.9H720.9l51.3-88.9"/><path fill="url(#cB)" d="M669.6 1066.1l51.3 88.9H618.4l51.2-88.9" opacity=".6"/><path fill="url(#cC)" d="M720.9 1155l-51.3-88.9h102.6l-51.3 88.9"/><path fill="url(#cD)" d="M720.9 977.3l51.3 88.8H669.6l51.3-88.8"/><path fill="url(#cs)" d="M772.2 1066.1l-51.3-88.8h102.6l-51.3 88.8"/><path fill="url(#cE)" d="M669.6 1066.1l-51.2-88.8h102.5l-51.3 88.8" opacity=".6"/><path fill="url(#cl)" d="M772.2 888.4l51.3 88.9H720.9l51.3-88.9"/><g><path fill="url(#cx)" d="M669.6 888.4l51.3 88.9H618.4l51.2-88.9" opacity=".6"/><path fill="url(#cy)" d="M720.9 977.3l-51.3-88.9h102.6l-51.3 88.9"/></g><g opacity=".5"><path fill="url(#cx)" d="M669.6 888.4l51.3 88.9H618.4l51.2-88.9" opacity=".6"/><path fill="url(#cF)" d="M567.1 888.4l51.3 88.9H515.8l51.3-88.9" opacity=".6"/><path fill="url(#cG)" d="M618.4 977.3l-51.3-88.9h102.5l-51.2 88.9" opacity=".6"/><path fill="url(#cH)" d="M618.4 799.6l51.2 88.8H567.1l51.3-88.8" opacity=".6"/><path fill="url(#cA)" d="M669.6 888.4l-51.2-88.8h102.5l-51.3 88.8" opacity=".6"/><g opacity=".6"><path fill="url(#cI)" d="M567.1 888.4l-51.3-88.8h102.6l-51.3 88.8"/></g><path fill="url(#cJ)" d="M618.4 799.6l-51.3-88.9h102.5l-51.2 88.9" opacity=".6"/></g><g><path fill="url(#cB)" d="M669.6 1066.1l51.3 88.9H618.4l51.2-88.9" opacity=".6"/><path fill="url(#cK)" d="M567.1 1066.1l51.3 88.9H515.8l51.3-88.9" opacity=".6"/><path fill="url(#cL)" d="M618.4 1155l-51.3-88.9h102.5l-51.2 88.9" opacity=".6"/><path fill="url(#cM)" d="M618.4 977.3l51.2 88.8H567.1l51.3-88.8" opacity=".6"/><path fill="url(#cE)" d="M669.6 1066.1l-51.2-88.8h102.5l-51.3 88.8" opacity=".6"/><path fill="url(#cN)" d="M567.1 1066.1l-51.3-88.8h102.6l-51.3 88.8" opacity=".6"/><path fill="url(#cx)" d="M669.6 888.4l51.3 88.9H618.4l51.2-88.9" opacity=".6"/><g><path fill="url(#cF)" d="M567.1 888.4l51.3 88.9H515.8l51.3-88.9" opacity=".6"/><path fill="url(#cG)" d="M618.4 977.3l-51.3-88.9h102.5l-51.2 88.9" opacity=".6"/></g></g><g opacity=".5"><g opacity=".6"><path fill="url(#cO)" d="M464.5 710.7l51.3 88.9H413.2l51.3-88.9"/><path fill="url(#cP)" d="M515.8 799.6l-51.3-88.9h102.6l-51.3 88.9"/></g><path fill="url(#cQ)" d="M515.8 621.9l51.3 88.8H464.5l51.3-88.8" opacity=".6"/><path fill="url(#cR)" d="M567.1 710.7l-51.3-88.8h102.6l-51.3 88.8" opacity=".6"/><path fill="url(#cS)" d="M567.1 533.1l51.3 88.8H515.8l51.3-88.8"/><g><path fill="url(#cT)" d="M464.5 533.1l51.3 88.8H413.2l51.3-88.8"/><path fill="url(#cU)" d="M515.8 621.9l-51.3-88.8h102.6l-51.3 88.8"/></g></g><g opacity=".2"><path fill="url(#cF)" d="M567.1 888.4l51.3 88.9H515.8l51.3-88.9"/><path fill="url(#cV)" d="M464.5 888.4l51.3 88.9H413.2l51.3-88.9"/><path fill="url(#cW)" d="M515.8 977.3l-51.3-88.9h102.6l-51.3 88.9"/><path fill="url(#cX)" d="M515.8 799.6l51.3 88.8H464.5l51.3-88.8"/><path fill="url(#cI)" d="M567.1 888.4l-51.3-88.8h102.6l-51.3 88.8"/><path fill="url(#cY)" d="M464.5 888.4l-51.3-88.8h102.6l-51.3 88.8"/><g><path fill="url(#cO)" d="M464.5 710.7l51.3 88.9H413.2l51.3-88.9"/><path fill="url(#cP)" d="M515.8 799.6l-51.3-88.9h102.6l-51.3 88.9"/></g></g><g opacity=".6"><path fill="url(#cK)" d="M567.1 1066.1l51.3 88.9H515.8l51.3-88.9"/><path fill="url(#cZ)" d="M464.5 1066.1l51.3 88.9H413.2l51.3-88.9"/><path fill="url(#da)" d="M515.8 1155l-51.3-88.9h102.6l-51.3 88.9"/><path fill="url(#db)" d="M515.8 977.3l51.3 88.8H464.5l51.3-88.8"/><path fill="url(#cN)" d="M567.1 1066.1l-51.3-88.8h102.6l-51.3 88.8"/><path fill="url(#dc)" d="M464.5 1066.1l-51.3-88.8h102.6l-51.3 88.8"/><path fill="url(#cF)" d="M567.1 888.4l51.3 88.9H515.8l51.3-88.9"/><g><path fill="url(#cV)" d="M464.5 888.4l51.3 88.9H413.2l51.3-88.9"/><path fill="url(#cW)" d="M515.8 977.3l-51.3-88.9h102.6l-51.3 88.9"/></g></g><g opacity=".5"><path fill="url(#cO)" d="M464.5 710.7l51.3 88.9H413.2l51.3-88.9" opacity=".6"/><g opacity=".6"><path fill="url(#dd)" d="M361.9 710.7l51.3 88.9H310.6l51.3-88.9"/><path fill="url(#de)" d="M413.2 799.6l-51.3-88.9h102.6l-51.3 88.9"/></g><path fill="url(#df)" d="M413.2 621.9l51.3 88.8H361.9l51.3-88.8" opacity=".6"/><path fill="url(#dg)" d="M361.9 710.7l-51.3-88.8h102.6l-51.3 88.8" opacity=".6"/><path fill="url(#cT)" d="M464.5 533.1l51.3 88.8H413.2l51.3-88.8"/><path fill="url(#dh)" d="M361.9 533.1l51.3 88.8H310.6l51.3-88.8" opacity=".3"/></g><g opacity=".5"><path fill="url(#cV)" d="M464.5 888.4l51.3 88.9H413.2l51.3-88.9"/><path fill="url(#di)" d="M361.9 888.4l51.3 88.9H310.6l51.3-88.9" opacity=".2"/><path fill="url(#dj)" d="M413.2 977.3l-51.3-88.9h102.6l-51.3 88.9" opacity=".2"/><path fill="url(#dk)" d="M413.2 799.6l51.3 88.8H361.9l51.3-88.8" opacity=".2"/><path fill="url(#cY)" d="M464.5 888.4l-51.3-88.8h102.6l-51.3 88.8"/><path fill="url(#dl)" d="M361.9 888.4l-51.3-88.8h102.6l-51.3 88.8" opacity=".2"/><path fill="url(#cO)" d="M464.5 710.7l51.3 88.9H413.2l51.3-88.9"/><g><path fill="url(#dd)" d="M361.9 710.7l51.3 88.9H310.6l51.3-88.9"/><path fill="url(#de)" d="M413.2 799.6l-51.3-88.9h102.6l-51.3 88.9"/></g></g><g opacity=".6"><path fill="url(#cZ)" d="M464.5 1066.1l51.3 88.9H413.2l51.3-88.9"/><path fill="url(#dm)" d="M361.9 1066.1l51.3 88.9H310.6l51.3-88.9" opacity=".2"/><path fill="url(#dn)" d="M413.2 1155l-51.3-88.9h102.6l-51.3 88.9" opacity=".2"/><path fill="url(#do)" d="M413.2 977.3l51.3 88.8H361.9l51.3-88.8" opacity=".2"/><path fill="url(#dc)" d="M464.5 1066.1l-51.3-88.8h102.6l-51.3 88.8"/><path fill="url(#dp)" d="M361.9 1066.1l-51.3-88.8h102.6l-51.3 88.8" opacity=".2"/><path fill="url(#cV)" d="M464.5 888.4l51.3 88.9H413.2l51.3-88.9"/><g><path fill="url(#di)" d="M361.9 888.4l51.3 88.9H310.6l51.3-88.9" opacity=".2"/><path fill="url(#dj)" d="M413.2 977.3l-51.3-88.9h102.6l-51.3 88.9" opacity=".2"/></g></g><g opacity=".5"><g opacity=".6"><path fill="url(#dq)" d="M259.3 710.7l51.3 88.9H208l51.3-88.9" opacity=".3"/><path fill="url(#dr)" d="M310.6 799.6l-51.3-88.9h102.6l-51.3 88.9" opacity=".3"/></g><path fill="url(#ds)" d="M310.6 621.9l51.3 88.8H259.3l51.3-88.8" opacity=".6"/><path fill="url(#dt)" d="M259.3 710.7L208 621.9h102.6l-51.3 88.8" opacity=".6"/><path fill="url(#dh)" d="M361.9 533.1l51.3 88.8H310.6l51.3-88.8" opacity=".3"/><path fill="url(#du)" d="M259.3 533.1l51.3 88.8H208l51.3-88.8" opacity=".3"/><path fill="url(#dv)" d="M310.6 621.9l-51.3-88.8h102.6l-51.3 88.8" opacity=".3"/></g><g opacity=".5"><path fill="url(#di)" d="M361.9 888.4l51.3 88.9H310.6l51.3-88.9" opacity=".2"/><g opacity=".2"><path fill="url(#dw)" d="M259.3 888.4l51.3 88.9H208l51.3-88.9"/><path fill="url(#dx)" d="M310.6 977.3l-51.3-88.9h102.6l-51.3 88.9"/></g><path fill="url(#dy)" d="M310.6 799.6l51.3 88.8H259.3l51.3-88.8" opacity=".2"/><path fill="url(#dl)" d="M361.9 888.4l-51.3-88.8h102.6l-51.3 88.8" opacity=".2"/><path fill="url(#dz)" d="M259.3 888.4L208 799.6h102.6l-51.3 88.8" opacity=".2"/><g><path fill="url(#dq)" d="M259.3 710.7l51.3 88.9H208l51.3-88.9" opacity=".3"/><path fill="url(#dr)" d="M310.6 799.6l-51.3-88.9h102.6l-51.3 88.9" opacity=".3"/></g></g><g opacity=".6"><path fill="url(#dm)" d="M361.9 1066.1l51.3 88.9H310.6l51.3-88.9" opacity=".2"/><path fill="url(#dA)" d="M259.3 1066.1l51.3 88.9H208l51.3-88.9" opacity=".2"/><path fill="url(#dB)" d="M310.6 1155l-51.3-88.9h102.6l-51.3 88.9" opacity=".2"/><path fill="url(#dC)" d="M310.6 977.3l51.3 88.8H259.3l51.3-88.8" opacity=".2"/><path fill="url(#dp)" d="M361.9 1066.1l-51.3-88.8h102.6l-51.3 88.8" opacity=".2"/><path fill="url(#dD)" d="M259.3 1066.1L208 977.3h102.6l-51.3 88.8" opacity=".2"/><path fill="url(#di)" d="M361.9 888.4l51.3 88.9H310.6l51.3-88.9" opacity=".2"/><g opacity=".2"><path fill="url(#dw)" d="M259.3 888.4l51.3 88.9H208l51.3-88.9"/><path fill="url(#dx)" d="M310.6 977.3l-51.3-88.9h102.6l-51.3 88.9"/></g></g><g opacity=".5"><path fill="url(#dq)" d="M259.3 710.7l51.3 88.9H208l51.3-88.9" opacity=".3"/><g opacity=".6"><path fill="url(#dE)" d="M156.7 710.7l51.3 88.9H105.4l51.3-88.9" opacity=".3"/><path fill="url(#dF)" d="M208 799.6l-51.3-88.9h102.6L208 799.6" opacity=".3"/></g><path fill="url(#dt)" d="M259.3 710.7L208 621.9h102.6l-51.3 88.8" opacity=".6"/><path fill="url(#dG)" d="M156.7 710.7l-51.3-88.8H208l-51.3 88.8" opacity=".6"/><g opacity=".3"><path fill="url(#dH)" d="M156.7 533.1l51.3 88.8H105.4l51.3-88.8"/><path fill="url(#dI)" d="M208 621.9l-51.3-88.8h102.6L208 621.9"/></g></g><g opacity=".5"><path fill="url(#dw)" d="M259.3 888.4l51.3 88.9H208l51.3-88.9" opacity=".2"/><g opacity=".2"><path fill="url(#dJ)" d="M156.7 888.4l51.3 88.9H105.4l51.3-88.9"/><path fill="url(#dK)" d="M208 977.3l-51.3-88.9h102.6L208 977.3"/></g><path fill="url(#dL)" d="M208 799.6l51.3 88.8H156.7l51.3-88.8" opacity=".2"/><path fill="url(#dz)" d="M259.3 888.4L208 799.6h102.6l-51.3 88.8" opacity=".2"/><path fill="url(#dM)" d="M156.7 888.4l-51.3-88.8H208l-51.3 88.8" opacity=".2"/><path fill="url(#dq)" d="M259.3 710.7l51.3 88.9H208l51.3-88.9" opacity=".3"/><g><path fill="url(#dE)" d="M156.7 710.7l51.3 88.9H105.4l51.3-88.9" opacity=".3"/><path fill="url(#dF)" d="M208 799.6l-51.3-88.9h102.6L208 799.6" opacity=".3"/></g></g><g opacity=".6"><path fill="url(#dA)" d="M259.3 1066.1l51.3 88.9H208l51.3-88.9" opacity=".2"/><path fill="url(#dN)" d="M156.7 1066.1L208 1155H105.4l51.3-88.9" opacity=".2"/><path fill="url(#dO)" d="M208 1155l-51.3-88.9h102.6L208 1155" opacity=".2"/><g opacity=".2"><path fill="url(#dP)" d="M208 977.3l51.3 88.8H156.7l51.3-88.8"/><path fill="url(#dD)" d="M259.3 1066.1L208 977.3h102.6l-51.3 88.8"/></g><path fill="url(#dQ)" d="M156.7 1066.1l-51.3-88.8H208l-51.3 88.8" opacity=".2"/><path fill="url(#dw)" d="M259.3 888.4l51.3 88.9H208l51.3-88.9" opacity=".2"/><g opacity=".2"><path fill="url(#dJ)" d="M156.7 888.4l51.3 88.9H105.4l51.3-88.9"/><path fill="url(#dK)" d="M208 977.3l-51.3-88.9h102.6L208 977.3"/></g></g><g><path fill="url(#dR)" d="M772.2 177.7l51.3 88.8H720.9l51.3-88.8"/><path fill="url(#dS)" d="M823.5 266.5l-51.3-88.8h102.6l-51.3 88.8"/><path fill="url(#dT)" d="M823.5 88.8l51.3 88.9H772.2l51.3-88.9" opacity=".5"/><path fill="url(#bP)" d="M874.8 177.7l-51.3-88.9h102.6l-51.3 88.9" opacity=".5"/><path fill="url(#dU)" d="M772.2 177.7l-51.3-88.9h102.6l-51.3 88.9" opacity=".5"/><g opacity=".5"><path fill="url(#bQ)" d="M874.8 0l51.3 88.8H823.5L874.8 0"/></g><g opacity=".5"><path fill="url(#dV)" d="M772.2 0l51.3 88.8H720.9L772.2 0"/><path fill="url(#dW)" d="M823.5 88.8L772.2 0h102.6l-51.3 88.8"/></g></g><g><path fill="url(#dX)" d="M772.2 355.4l51.3 88.8H720.9l51.3-88.8"/><path fill="url(#dY)" d="M823.5 444.2l-51.3-88.8h102.6l-51.3 88.8"/><path fill="url(#dZ)" d="M823.5 266.5l51.3 88.9H772.2l51.3-88.9"/><path fill="url(#ea)" d="M874.8 355.4l-51.3-88.9h102.6l-51.3 88.9"/><path fill="url(#eb)" d="M772.2 355.4l-51.3-88.9h102.6l-51.3 88.9"/><g><path fill="url(#dR)" d="M772.2 177.7l51.3 88.8H720.9l51.3-88.8"/><path fill="url(#dS)" d="M823.5 266.5l-51.3-88.8h102.6l-51.3 88.8"/></g></g><g opacity=".4"><path fill="url(#ck)" d="M772.2 533.1l51.3 88.8H720.9l51.3-88.8"/><path fill="url(#bV)" d="M874.8 533.1l-51.3-88.9h102.6l-51.3 88.9"/><path fill="url(#ec)" d="M772.2 533.1l-51.3-88.9h102.6l-51.3 88.9"/><path fill="url(#dX)" d="M772.2 355.4l51.3 88.8H720.9l51.3-88.8"/></g><g opacity=".8"><path fill="url(#dX)" d="M772.2 355.4l51.3 88.8H720.9l51.3-88.8"/><path fill="url(#ed)" d="M669.6 355.4l51.3 88.8H618.4l51.2-88.8"/><path fill="url(#ee)" d="M720.9 266.5l51.3 88.9H669.6l51.3-88.9"/><path fill="url(#eb)" d="M772.2 355.4l-51.3-88.9h102.6l-51.3 88.9"/><path fill="url(#ef)" d="M669.6 355.4l-51.2-88.9h102.5l-51.3 88.9"/><path fill="url(#dR)" d="M772.2 177.7l51.3 88.8H720.9l51.3-88.8"/><g><path fill="url(#eg)" d="M669.6 177.7l51.3 88.8H618.4l51.2-88.8"/><path fill="url(#eh)" d="M720.9 266.5l-51.3-88.8h102.6l-51.3 88.8"/></g></g><g opacity=".2"><path fill="url(#ck)" d="M772.2 533.1l51.3 88.8H720.9l51.3-88.8"/><path fill="url(#ei)" d="M720.9 444.2l51.3 88.9H669.6l51.3-88.9"/><path fill="url(#ec)" d="M772.2 533.1l-51.3-88.9h102.6l-51.3 88.9"/><path fill="url(#ej)" d="M669.6 533.1l-51.2-88.9h102.5l-51.3 88.9"/><path fill="url(#dX)" d="M772.2 355.4l51.3 88.8H720.9l51.3-88.8"/></g><g><path fill="url(#ek)" d="M567.1 177.7l51.3 88.8H515.8l51.3-88.8" opacity=".5"/><path fill="url(#el)" d="M618.4 266.5l-51.3-88.8h102.5l-51.2 88.8"/><path fill="url(#em)" d="M618.4 88.8l51.2 88.9H567.1l51.3-88.9" opacity=".5"/><path fill="url(#en)" d="M669.6 177.7l-51.2-88.9h102.5l-51.3 88.9" opacity=".5"/><path fill="url(#eo)" d="M567.1 177.7l-51.3-88.9h102.6l-51.3 88.9" opacity=".5"/><g opacity=".5"><path fill="url(#ep)" d="M669.6 0l51.3 88.8H618.4L669.6 0"/></g><g opacity=".5"><path fill="url(#eq)" d="M567.1 0l51.3 88.8H515.8L567.1 0" opacity=".5"/><path fill="url(#er)" d="M618.4 88.8L567.1 0h102.5l-51.2 88.8"/></g></g><g><path fill="url(#es)" d="M567.1 355.4l51.3 88.8H515.8l51.3-88.8" opacity=".5"/><path fill="url(#et)" d="M618.4 444.2l-51.3-88.8h102.5l-51.2 88.8"/><path fill="url(#ef)" d="M669.6 355.4l-51.2-88.9h102.5l-51.3 88.9"/><path fill="url(#eu)" d="M567.1 355.4l-51.3-88.9h102.6l-51.3 88.9" opacity=".5"/><g><path fill="url(#ek)" d="M567.1 177.7l51.3 88.8H515.8l51.3-88.8" opacity=".5"/><path fill="url(#el)" d="M618.4 266.5l-51.3-88.8h102.5l-51.2 88.8"/></g></g><g opacity=".4"><path fill="url(#cS)" d="M567.1 533.1l51.3 88.8H515.8l51.3-88.8"/><path fill="url(#ev)" d="M618.4 621.9l-51.3-88.8h102.5l-51.2 88.8"/><path fill="url(#ew)" d="M618.4 444.2l51.2 88.9H567.1l51.3-88.9"/><path fill="url(#ej)" d="M669.6 533.1l-51.2-88.9h102.5l-51.3 88.9"/><path fill="url(#ex)" d="M567.1 533.1l-51.3-88.9h102.6l-51.3 88.9"/><g><path fill="url(#es)" d="M567.1 355.4l51.3 88.8H515.8l51.3-88.8" opacity=".5"/><path fill="url(#et)" d="M618.4 444.2l-51.3-88.8h102.5l-51.2 88.8"/></g></g><g><path fill="url(#ek)" d="M567.1 177.7l51.3 88.8H515.8l51.3-88.8" opacity=".5"/><path fill="url(#ey)" d="M515.8 266.5l-51.3-88.8h102.6l-51.3 88.8" opacity=".5"/><path fill="url(#ez)" d="M515.8 88.8l51.3 88.9H464.5l51.3-88.9" opacity=".5"/><path fill="url(#eo)" d="M567.1 177.7l-51.3-88.9h102.6l-51.3 88.9" opacity=".5"/><path fill="url(#eA)" d="M464.5 177.7l-51.3-88.9h102.6l-51.3 88.9" opacity=".5"/><path fill="url(#eq)" d="M567.1 0l51.3 88.8H515.8L567.1 0" opacity=".5"/><g opacity=".5"><path fill="url(#eB)" d="M464.5 0l51.3 88.8H413.2L464.5 0" opacity=".5"/><path fill="url(#eC)" d="M515.8 88.8L464.5 0h102.6l-51.3 88.8" opacity=".5"/></g></g><g opacity=".2"><path fill="url(#es)" d="M567.1 355.4l51.3 88.8H515.8l51.3-88.8" opacity=".5"/><path fill="url(#eD)" d="M464.5 355.4l51.3 88.8H413.2l51.3-88.8" opacity=".5"/><path fill="url(#eE)" d="M515.8 444.2l-51.3-88.8h102.6l-51.3 88.8" opacity=".5"/><path fill="url(#eF)" d="M515.8 266.5l51.3 88.9H464.5l51.3-88.9" opacity=".5"/><path fill="url(#eu)" d="M567.1 355.4l-51.3-88.9h102.6l-51.3 88.9" opacity=".5"/><path fill="url(#eG)" d="M464.5 355.4l-51.3-88.9h102.6l-51.3 88.9" opacity=".5"/><path fill="url(#ek)" d="M567.1 177.7l51.3 88.8H515.8l51.3-88.8" opacity=".5"/><path fill="url(#ey)" d="M515.8 266.5l-51.3-88.8h102.6l-51.3 88.8" opacity=".5"/></g><g opacity=".8"><path fill="url(#eD)" d="M464.5 355.4l51.3 88.8H413.2l51.3-88.8" opacity=".5"/><path fill="url(#eH)" d="M361.9 355.4l51.3 88.8H310.6l51.3-88.8" opacity=".3"/><path fill="url(#eI)" d="M413.2 444.2l-51.3-88.8h102.6l-51.3 88.8" opacity=".5"/><path fill="url(#eG)" d="M464.5 355.4l-51.3-88.9h102.6l-51.3 88.9" opacity=".5"/><path fill="url(#eJ)" d="M361.9 355.4l-51.3-88.9h102.6l-51.3 88.9" opacity=".5"/><g opacity=".5"><path fill="url(#eK)" d="M361.9 177.7l51.3 88.8H310.6l51.3-88.8"/><path fill="url(#eL)" d="M413.2 266.5l-51.3-88.8h102.6l-51.3 88.8"/></g></g><g opacity=".5"><path fill="url(#cT)" d="M464.5 533.1l51.3 88.8H413.2l51.3-88.8"/><path fill="url(#dh)" d="M361.9 533.1l51.3 88.8H310.6l51.3-88.8" opacity=".3"/><path fill="url(#eM)" d="M413.2 444.2l51.3 88.9H361.9l51.3-88.9"/><path fill="url(#eN)" d="M464.5 533.1l-51.3-88.9h102.6l-51.3 88.9"/><path fill="url(#eO)" d="M361.9 533.1l-51.3-88.9h102.6l-51.3 88.9" opacity=".3"/><path fill="url(#eD)" d="M464.5 355.4l51.3 88.8H413.2l51.3-88.8" opacity=".5"/><g><path fill="url(#eH)" d="M361.9 355.4l51.3 88.8H310.6l51.3-88.8" opacity=".3"/><path fill="url(#eI)" d="M413.2 444.2l-51.3-88.8h102.6l-51.3 88.8" opacity=".5"/></g></g><g opacity=".4"><g opacity=".7"><path fill="url(#ac)" d="M1285.2 710.7l51.3 88.9h-102.6l51.3-88.9"/><path fill="url(#aG)" d="M1182.6 710.7l51.3 88.9h-102.6l51.3-88.9"/><path fill="url(#aH)" d="M1233.9 799.6l-51.3-88.9h102.6l-51.3 88.9"/><path fill="url(#eP)" d="M1233.9 621.9l51.3 88.8h-102.6l51.3-88.8"/><path fill="url(#af)" d="M1285.2 710.7l-51.3-88.8h102.6l-51.3 88.8"/><path fill="url(#bd)" d="M1182.6 710.7l-51.3-88.8h102.6l-51.3 88.8"/><path fill="url(#Y)" d="M1285.2 533.1l51.3 88.8h-102.6l51.3-88.8"/><g><path fill="url(#ay)" d="M1182.6 533.1l51.3 88.8h-102.6l51.3-88.8"/><path fill="url(#az)" d="M1233.9 621.9l-51.3-88.8h102.6l-51.3 88.8"/></g></g><g opacity=".7"><path fill="url(#bW)" d="M926.1 444.2l-51.3-88.8h102.6l-51.3 88.8"/><path fill="url(#bw)" d="M977.4 355.4l-51.3-88.9h102.6l-51.3 88.9"/><path fill="url(#ea)" d="M874.8 355.4l-51.3-88.9h102.6l-51.3 88.9"/><path fill="url(#bN)" d="M926.1 266.5l-51.3-88.8h102.6l-51.3 88.8"/></g><g opacity=".7"><path fill="url(#bA)" d="M977.4 710.7l51.3 88.9H926.1l51.3-88.9"/><path fill="url(#bD)" d="M977.4 710.7l-51.3-88.8h102.6l-51.3 88.8"/><path fill="url(#cj)" d="M874.8 710.7l-51.3-88.8h102.6l-51.3 88.8"/><path fill="url(#bx)" d="M977.4 533.1l51.3 88.8H926.1l51.3-88.8"/></g><g opacity=".2"><path fill="url(#dR)" d="M772.2 177.7l51.3 88.8H720.9l51.3-88.8"/><path fill="url(#eh)" d="M720.9 266.5l-51.3-88.8h102.6l-51.3 88.8"/><path fill="url(#eQ)" d="M720.9 88.8l51.3 88.9H669.6l51.3-88.9" opacity=".5"/><path fill="url(#dV)" d="M772.2 0l51.3 88.8H720.9L772.2 0" opacity=".5"/><g opacity=".5"><path fill="url(#ep)" d="M669.6 0l51.3 88.8H618.4L669.6 0"/><path fill="url(#eR)" d="M720.9 88.8L669.6 0h102.6l-51.3 88.8"/></g></g><g opacity=".5"><path fill="url(#cJ)" d="M618.4 799.6l-51.3-88.9h102.5l-51.2 88.9" opacity=".6"/><path fill="url(#eS)" d="M618.4 621.9l51.2 88.8H567.1l51.3-88.8" opacity=".6"/><path fill="url(#cR)" d="M567.1 710.7l-51.3-88.8h102.6l-51.3 88.8" opacity=".6"/><path fill="url(#cS)" d="M567.1 533.1l51.3 88.8H515.8l51.3-88.8"/><path fill="url(#ev)" d="M618.4 621.9l-51.3-88.8h102.5l-51.2 88.8"/></g><g opacity=".5"><path fill="url(#cS)" d="M567.1 533.1l51.3 88.8H515.8l51.3-88.8"/><path fill="url(#cT)" d="M464.5 533.1l51.3 88.8H413.2l51.3-88.8"/><path fill="url(#cU)" d="M515.8 621.9l-51.3-88.8h102.6l-51.3 88.8"/><path fill="url(#eT)" d="M515.8 444.2l51.3 88.9H464.5l51.3-88.9"/><path fill="url(#ex)" d="M567.1 533.1l-51.3-88.9h102.6l-51.3 88.9"/><path fill="url(#eN)" d="M464.5 533.1l-51.3-88.9h102.6l-51.3 88.9"/><path fill="url(#es)" d="M567.1 355.4l51.3 88.8H515.8l51.3-88.8" opacity=".5"/><g><path fill="url(#eD)" d="M464.5 355.4l51.3 88.8H413.2l51.3-88.8" opacity=".5"/><path fill="url(#eE)" d="M515.8 444.2l-51.3-88.8h102.6l-51.3 88.8" opacity=".5"/></g></g><g opacity=".5"><g opacity=".3"><path fill="url(#eL)" d="M413.2 266.5l-51.3-88.8h102.6l-51.3 88.8"/><path fill="url(#eU)" d="M413.2 88.8l51.3 88.9H361.9l51.3-88.9" opacity=".5"/><path fill="url(#eA)" d="M464.5 177.7l-51.3-88.9h102.6l-51.3 88.9" opacity=".5"/><path fill="url(#eV)" d="M361.9 177.7l-51.3-88.9h102.6l-51.3 88.9" opacity=".5"/><path fill="url(#eB)" d="M464.5 0l51.3 88.8H413.2L464.5 0" opacity=".5"/><g opacity=".5"><path fill="url(#eW)" d="M361.9 0l51.3 88.8H310.6L361.9 0"/><path fill="url(#eX)" d="M413.2 88.8L361.9 0h102.6l-51.3 88.8"/></g></g><g opacity=".5"><path fill="url(#eY)" d="M310.6 266.5l-51.3-88.8h102.6l-51.3 88.8"/><path fill="url(#eZ)" d="M310.6 88.8l51.3 88.9H259.3l51.3-88.9" opacity=".5"/><path fill="url(#eV)" d="M361.9 177.7l-51.3-88.9h102.6l-51.3 88.9" opacity=".5"/><path fill="url(#fa)" d="M259.3 177.7L208 88.8h102.6l-51.3 88.9" opacity=".5"/><path fill="url(#eW)" d="M361.9 0l51.3 88.8H310.6L361.9 0" opacity=".5"/><g opacity=".5"><path fill="url(#fb)" d="M259.3 0l51.3 88.8H208L259.3 0"/><path fill="url(#fc)" d="M310.6 88.8L259.3 0h102.6l-51.3 88.8"/></g></g><g opacity=".8"><path fill="url(#eH)" d="M361.9 355.4l51.3 88.8H310.6l51.3-88.8" opacity=".3"/><path fill="url(#fd)" d="M259.3 355.4l51.3 88.8H208l51.3-88.8" opacity=".3"/><path fill="url(#fe)" d="M310.6 444.2l-51.3-88.8h102.6l-51.3 88.8" opacity=".3"/><g opacity=".5"><path fill="url(#ff)" d="M310.6 266.5l51.3 88.9H259.3l51.3-88.9" opacity=".3"/><path fill="url(#eJ)" d="M361.9 355.4l-51.3-88.9h102.6l-51.3 88.9"/></g><path fill="url(#fg)" d="M259.3 355.4L208 266.5h102.6l-51.3 88.9" opacity=".3"/><g opacity=".5"><path fill="url(#eY)" d="M310.6 266.5l-51.3-88.8h102.6l-51.3 88.8"/></g></g><g opacity=".3"><path fill="url(#fh)" d="M156.7 177.7l51.3 88.8H105.4l51.3-88.8"/><path fill="url(#fi)" d="M208 266.5l-51.3-88.8h102.6L208 266.5"/><path fill="url(#fj)" d="M208 88.8l51.3 88.9H156.7L208 88.8" opacity=".5"/><path fill="url(#fa)" d="M259.3 177.7L208 88.8h102.6l-51.3 88.9" opacity=".5"/><path fill="url(#fk)" d="M156.7 177.7l-51.3-88.9H208l-51.3 88.9" opacity=".5"/><g opacity=".5"><path fill="url(#fb)" d="M259.3 0l51.3 88.8H208L259.3 0"/></g><g opacity=".5"><path fill="url(#fl)" d="M156.7 0L208 88.8H105.4L156.7 0"/><path fill="url(#fm)" d="M208 88.8L156.7 0h102.6L208 88.8"/></g></g><g opacity=".8"><path fill="url(#fd)" d="M259.3 355.4l51.3 88.8H208l51.3-88.8" opacity=".5"/><g opacity=".3"><path fill="url(#fn)" d="M156.7 355.4l51.3 88.8H105.4l51.3-88.8" opacity=".5"/><path fill="url(#fo)" d="M208 444.2l-51.3-88.8h102.6L208 444.2" opacity=".5"/></g><g opacity=".5"><path fill="url(#fp)" d="M208 266.5l51.3 88.9H156.7l51.3-88.9" opacity=".3"/><path fill="url(#fg)" d="M259.3 355.4L208 266.5h102.6l-51.3 88.9" opacity=".3"/></g><path fill="url(#fq)" d="M156.7 355.4l-51.3-88.9H208l-51.3 88.9" opacity=".3"/><g opacity=".5"><path fill="url(#fh)" d="M156.7 177.7l51.3 88.8H105.4l51.3-88.8"/><path fill="url(#fi)" d="M208 266.5l-51.3-88.8h102.6L208 266.5"/></g></g><g opacity=".3"><path fill="url(#fh)" d="M156.7 177.7l51.3 88.8H105.4l51.3-88.8"/><path fill="url(#fr)" d="M54.1 177.7l51.3 88.8H2.8l51.3-88.8"/><path fill="url(#fs)" d="M105.4 266.5l-51.3-88.8h102.6l-51.3 88.8"/><path fill="url(#ft)" d="M105.4 88.8l51.3 88.9H54.1l51.3-88.9" opacity=".5"/><path fill="url(#fk)" d="M156.7 177.7l-51.3-88.9H208l-51.3 88.9" opacity=".5"/><path fill="url(#fu)" d="M54.1 177.7L2.8 88.8h102.6l-51.3 88.9" opacity=".5"/><g opacity=".5"><path fill="url(#fl)" d="M156.7 0L208 88.8H105.4L156.7 0"/></g><g opacity=".5"><path fill="url(#fv)" d="M54.1 0l51.3 88.8H2.8L54.1 0"/><path fill="url(#fw)" d="M105.4 88.8L54.1 0h102.6l-51.3 88.8"/></g></g><g opacity=".2"><path fill="url(#fn)" d="M156.7 355.4l51.3 88.8H105.4l51.3-88.8" opacity=".5"/><g opacity=".3"><path fill="url(#fx)" d="M54.1 355.4l51.3 88.8H2.8l51.3-88.8" opacity=".5"/><path fill="url(#fy)" d="M105.4 444.2l-51.3-88.8h102.6l-51.3 88.8" opacity=".5"/></g><g opacity=".5"><path fill="url(#fz)" d="M105.4 266.5l51.3 88.9H54.1l51.3-88.9" opacity=".3"/><path fill="url(#fq)" d="M156.7 355.4l-51.3-88.9H208l-51.3 88.9" opacity=".3"/></g><path fill="url(#fA)" d="M54.1 355.4L2.8 266.5h102.6l-51.3 88.9" opacity=".3"/><path fill="url(#fh)" d="M156.7 177.7l51.3 88.8H105.4l51.3-88.8" opacity=".5"/><g opacity=".5"><path fill="url(#fr)" d="M54.1 177.7l51.3 88.8H2.8l51.3-88.8"/><path fill="url(#fs)" d="M105.4 266.5l-51.3-88.8h102.6l-51.3 88.8"/></g></g></g></g><g opacity=".5"><g opacity=".5"><path fill="url(#dv)" d="M310.6 621.9l-51.3-88.8h102.6l-51.3 88.8" opacity=".3"/><path fill="url(#fB)" d="M310.6 444.2l51.3 88.9H259.3l51.3-88.9" opacity=".3"/><path fill="url(#eO)" d="M361.9 533.1l-51.3-88.9h102.6l-51.3 88.9" opacity=".3"/><path fill="url(#fC)" d="M259.3 533.1L208 444.2h102.6l-51.3 88.9" opacity=".3"/><g><path fill="url(#fd)" d="M259.3 355.4l51.3 88.8H208l51.3-88.8" opacity=".3"/><path fill="url(#fe)" d="M310.6 444.2l-51.3-88.8h102.6l-51.3 88.8" opacity=".3"/></g></g><g opacity=".5"><path fill="url(#dH)" d="M156.7 533.1l51.3 88.8H105.4l51.3-88.8"/><path fill="url(#dI)" d="M208 621.9l-51.3-88.8h102.6L208 621.9"/><path fill="url(#fD)" d="M208 444.2l51.3 88.9H156.7l51.3-88.9"/><path fill="url(#fC)" d="M259.3 533.1L208 444.2h102.6l-51.3 88.9"/><path fill="url(#fE)" d="M156.7 533.1l-51.3-88.9H208l-51.3 88.9"/><path fill="url(#fd)" d="M259.3 355.4l51.3 88.8H208l51.3-88.8" opacity=".5"/><g><path fill="url(#fn)" d="M156.7 355.4l51.3 88.8H105.4l51.3-88.8" opacity=".5"/><path fill="url(#fo)" d="M208 444.2l-51.3-88.8h102.6L208 444.2" opacity=".5"/></g></g><g opacity=".5"><path fill="url(#dH)" d="M156.7 533.1l51.3 88.8H105.4l51.3-88.8"/><path fill="url(#fF)" d="M54.1 533.1l51.3 88.8H2.8l51.3-88.8"/><path fill="url(#fG)" d="M105.4 621.9l-51.3-88.8h102.6l-51.3 88.8"/><path fill="url(#fH)" d="M105.4 444.2l51.3 88.9H54.1l51.3-88.9"/><path fill="url(#fE)" d="M156.7 533.1l-51.3-88.9H208l-51.3 88.9"/><path fill="url(#fI)" d="M54.1 533.1L2.8 444.2h102.6l-51.3 88.9"/><path fill="url(#fx)" d="M54.1 355.4l51.3 88.8H2.8l51.3-88.8" opacity=".5"/></g></g></g><g opacity=".5"><path fill="url(#dE)" d="M156.7 710.7l51.3 88.9H105.4l51.3-88.9" opacity=".3"/><g opacity=".6"><path fill="url(#fJ)" d="M54.1 710.7l51.3 88.9H2.8l51.3-88.9" opacity=".3"/><path fill="url(#fK)" d="M105.4 799.6l-51.3-88.9h102.6l-51.3 88.9" opacity=".3"/></g><g opacity=".3"><path fill="url(#fL)" d="M105.4 621.9l51.3 88.8H54.1l51.3-88.8" opacity=".6"/><path fill="url(#dG)" d="M156.7 710.7l-51.3-88.8H208l-51.3 88.8" opacity=".6"/></g><path fill="url(#fM)" d="M54.1 710.7L2.8 621.9h102.6l-51.3 88.8" opacity=".6"/><path fill="url(#fG)" d="M105.4 621.9l-51.3-88.8h102.6l-51.3 88.8" opacity=".3"/></g><g opacity=".5"><path fill="url(#dJ)" d="M156.7 888.4l51.3 88.9H105.4l51.3-88.9" opacity=".2"/><g opacity=".2"><path fill="url(#fN)" d="M54.1 888.4l51.3 88.9H2.8l51.3-88.9"/><path fill="url(#fO)" d="M105.4 977.3l-51.3-88.9h102.6l-51.3 88.9"/></g><path fill="url(#fP)" d="M105.4 799.6l51.3 88.8H54.1l51.3-88.8" opacity=".2"/><path fill="url(#dM)" d="M156.7 888.4l-51.3-88.8H208l-51.3 88.8" opacity=".2"/><path fill="url(#fQ)" d="M54.1 888.4L2.8 799.6h102.6l-51.3 88.8" opacity=".2"/><path fill="url(#dE)" d="M156.7 710.7l51.3 88.9H105.4l51.3-88.9" opacity=".3"/><g><path fill="url(#fJ)" d="M54.1 710.7l51.3 88.9H2.8l51.3-88.9" opacity=".3"/><path fill="url(#fK)" d="M105.4 799.6l-51.3-88.9h102.6l-51.3 88.9" opacity=".3"/></g></g><g opacity=".6"><path fill="url(#dN)" d="M156.7 1066.1L208 1155H105.4l51.3-88.9" opacity=".2"/><path fill="url(#fR)" d="M54.1 1066.1l51.3 88.9H2.8l51.3-88.9" opacity=".2"/><path fill="url(#fS)" d="M105.4 1155l-51.3-88.9h102.6l-51.3 88.9" opacity=".2"/><g opacity=".2"><path fill="url(#fT)" d="M105.4 977.3l51.3 88.8H54.1l51.3-88.8"/><path fill="url(#dQ)" d="M156.7 1066.1l-51.3-88.8H208l-51.3 88.8"/></g><path fill="url(#fU)" d="M54.1 1066.1L2.8 977.3h102.6l-51.3 88.8" opacity=".2"/><path fill="url(#dJ)" d="M156.7 888.4l51.3 88.9H105.4l51.3-88.9" opacity=".2"/><g opacity=".2"><path fill="url(#fN)" d="M54.1 888.4l51.3 88.9H2.8l51.3-88.9"/><path fill="url(#fO)" d="M105.4 977.3l-51.3-88.9h102.6l-51.3 88.9"/></g></g></g><path fill="url(#fV)" d="M886.1 266.5l51.3 88.9H834.8l51.3-88.9" opacity=".7"/><path fill="url(#fW)" d="M988.7 444.2l51.3 88.9H937.4l51.3-88.9"/><path fill="url(#fX)" d="M886.1 621.9l51.3 88.8H834.8l51.3-88.8" opacity=".7"/><path fill="url(#fF)" d="M54.1 533.1l51.3 88.8H2.8l51.3-88.8" opacity=".1"/><path fill="url(#dh)" d="M361.9 533.1l51.3 88.8H310.6l51.3-88.8" opacity=".3"/><path fill="url(#fY)" d="M413.2 621.9l-51.3-88.8h102.6l-51.3 88.8" opacity=".1"/><path fill="url(#fZ)" d="M732.2 177.7l-51.3-88.9h102.6l-51.3 88.9" opacity=".5"/><path fill="url(#ga)" d="M629.6 177.7l-51.3-88.9h102.6l-51.3 88.9" opacity=".5"/></g></svg>
