<svg xmlns="http://www.w3.org/2000/svg" viewBox="0 0 715.8 876.2">
  <defs>
    <style>
      .cls-1 {
        fill: #336983;
      }
    </style>
  </defs>
  <title>prof</title>
  <g id="Layer_2" data-name="Layer 2">
    <g id="Layer1">
      <g id="prof">
        <g>
          <path class="cls-1" d="M20.4,522.2l3.1.2A23.5,23.5,0,0,0,46.7,502l6.1-221V780a26.4,26.4,0,1,0,52.8,0V506.3a5.2,5.2,0,1,1,10.4-.9h.2V780a26.4,26.4,0,1,0,52.8,0V476.6h0v-195l5.2,219.8a23.5,23.5,0,0,0,23.3,21.1h2.4a23.5,23.5,0,0,0,21-25.7L209.8,237a23.5,23.5,0,0,0-14-18.1c-8.6-4.3-49.2-23.6-84.1-24.1-39.2-.6-86.1,24.3-86.1,24.3h0A23.5,23.5,0,0,0,12,237L.2,495.9A23.5,23.5,0,0,0,20.4,522.2ZM86.2,320.5l23.5-87.9c.3-1,.5-1.9.8-2.6h-6.4a6.4,6.4,0,0,1-6.4-6.4V210.4a6.4,6.4,0,0,1,6.4-6.4h12.8a6.4,6.4,0,0,1,6.4,6.4v13.3a6.4,6.4,0,0,1-6.4,6.4h-6.4c.3.7.5,1.6.8,2.6l23.5,87.9c1.9,7.1.4,18.2-3.4,24.5l-16.7,28c-1.6,2.6-3,4-4.2,4.2s-2.6-1.6-4.2-4.2l-16.7-28C85.8,338.7,84.3,327.7,86.2,320.5Z"/>
          <path class="cls-1" d="M110.6,190.9c15.3,0,28.4-13.2,35.2-28.3,9.3-20.4,9.4-44.4,9.4-44.8,0-33.1-12.5-46.6-44.6-46.6S65.8,85.7,65.8,118.8c0,.2.4,20.5,8,39.4C80.6,175.2,93.6,190.9,110.6,190.9Z"/>
        </g>
        <g>
          <path class="cls-1" d="M715.6,495.9,703.9,237a23.5,23.5,0,0,0-13.7-18h0s-46.8-24.8-86.1-24.3c-34.9.5-75.6,19.9-84.1,24.1A23.5,23.5,0,0,0,506,237L494.9,496.7a23.5,23.5,0,0,0,21,25.7h2.4a23.5,23.5,0,0,0,23.3-21.1l5.2-219.8v195h0V780a26.4,26.4,0,1,0,52.8,0V505.4h.2a5.2,5.2,0,1,1,10.4.9V780a26.4,26.4,0,1,0,52.8,0V281l6.1,221a23.5,23.5,0,0,0,23.2,20.4l3.1-.2A23.5,23.5,0,0,0,715.6,495.9ZM626.2,345.1l-16.7,28c-1.6,2.6-3,4-4.2,4.2s-2.6-1.6-4.2-4.2l-16.7-28c-3.8-6.4-5.3-17.4-3.4-24.5l23.5-87.9c.3-1,.5-1.9.8-2.6h-6.4a6.4,6.4,0,0,1-6.4-6.4V210.4a6.4,6.4,0,0,1,6.4-6.4h12.8a6.4,6.4,0,0,1,6.4,6.4v13.3a6.4,6.4,0,0,1-6.4,6.4h-6.4c.3.7.5,1.6.8,2.6l23.5,87.9C631.6,327.7,630,338.7,626.2,345.1Z"/>
          <path class="cls-1" d="M605.2,190.9c-15.3,0-28.4-13.2-35.2-28.3-9.3-20.4-9.4-44.4-9.4-44.8,0-33.1,12.5-46.6,44.6-46.6s44.9,14.5,44.9,47.6c0,.2-.4,20.5-8,39.4C635.3,175.2,622.2,190.9,605.2,190.9Z"/>
        </g>
        <g>
          <path class="cls-1" d="M489.5,506.2l-14-308.5a27.9,27.9,0,0,0-16.3-21.4h.1s-55.8-29.6-102.6-28.9c-41.6.6-90.1,23.7-100.3,28.7a27.9,27.9,0,0,0-16.7,21.6L226.5,507a28,28,0,0,0,25,30.6h2.8a28,28,0,0,0,27.8-25.2l6.2-261.9V483.1h0V844.7a31.5,31.5,0,1,0,62.9,0V517.4h.2a6.2,6.2,0,1,1,12.4,1.1V844.7a31.5,31.5,0,1,0,62.9,0V250.1L434,513.4a28,28,0,0,0,27.7,24.3l3.7-.2A28,28,0,0,0,489.5,506.2ZM383,326.4l-19.9,33.4c-1.9,3.2-3.6,4.8-5,5s-3.1-1.9-5-5l-19.9-33.4c-4.5-7.6-6.3-20.7-4.1-29.3l28-104.8c.3-1.2.6-2.2.9-3.1h-7.6a7.6,7.6,0,0,1-7.6-7.6V165.8a7.6,7.6,0,0,1,7.6-7.6h15.2a7.6,7.6,0,0,1,7.6,7.6v15.9a7.6,7.6,0,0,1-7.6,7.6h-7.6c.3.9.6,1.9.9,3.1l28,104.8C389.3,305.7,387.5,318.8,383,326.4Z"/>
          <path class="cls-1" d="M357.9,142.7c-18.2,0-33.8-15.7-42-33.7-11-24.3-11.2-52.9-11.2-53.4C304.7,16.1,319.7,0,357.9,0s53.5,17.3,53.5,56.7c0,.3-.5,24.5-9.5,46.9C393.7,123.9,378.2,142.7,357.9,142.7Z"/>
        </g>
      </g>
    </g>
  </g>
</svg>
