<svg xmlns="http://www.w3.org/2000/svg" viewBox="0 0 810.2 810.1">
  <defs>
    <style>
      .cls-1 {
        fill: #336983;
      }
    </style>
  </defs>
  <title>imporve</title>
  <g id="Layer_2" data-name="Layer 2">
    <g id="Layer1">
      <g>
        <rect class="cls-1" x="173.1" y="531.2" width="72.8" height="155.34"/>
        <rect class="cls-1" x="294.4" y="458.4" width="72.8" height="228.14"/>
        <rect class="cls-1" x="430.4" y="400.2" width="72.8" height="286.41"/>
        <rect class="cls-1" x="561.4" y="317.7" width="72.8" height="368.91"/>
        <polygon class="cls-1" points="576 259.7 678.7 97.5 482.9 140.9 542.1 170.5 126.7 463.4 151.3 496.6 156.3 492.3 572.4 198.9 576 259.7"/>
        <polygon class="cls-1" points="61 810.1 61 747.4 0 747.4 0 734 61 734 61 668.6 26.7 668.6 26.7 653.8 61 653.8 61 505.4 26.7 505.4 26.7 490.7 61 490.7 61 342.3 26.7 342.3 26.7 327.5 61 327.5 61 179.2 26.7 179.2 26.7 164.4 61 164.4 61 0 74.4 0 74.4 734 810.2 734 810.2 747.4 645.7 747.4 645.7 781.7 631 781.7 631 747.4 482.6 747.4 482.6 781.7 467.8 781.7 467.8 747.4 319.5 747.4 319.5 781.7 304.7 781.7 304.7 747.4 156.3 747.4 156.3 781.7 141.6 781.7 141.6 747.4 74.4 747.4 74.4 810.1 61 810.1"/>
      </g>
    </g>
  </g>
</svg>
