<?xml version="1.0" encoding="iso-8859-1"?>
<!-- Generator: Adobe Illustrator 19.0.0, SVG Export Plug-In . SVG Version: 6.00 Build 0)  -->
<svg version="1.1" id="Layer_1" xmlns="http://www.w3.org/2000/svg" xmlns:xlink="http://www.w3.org/1999/xlink" x="0px" y="0px"
	 viewBox="0 0 482.2 482.2" style="enable-background:new 0 0 482.2 482.2;" xml:space="preserve">
<circle style="fill:#84DBFF;" cx="241.1" cy="241.1" r="241.1"/>
<path style="fill:#324A5E;" d="M362.6,418.2h-243c-2.6,0-4.7-2.1-4.7-4.7V105.6c0-2.6,2.1-4.7,4.7-4.7h242.9c2.6,0,4.7,2.1,4.7,4.7
	v307.9C367.2,416.1,365.1,418.2,362.6,418.2z"/>
<polygon style="fill:#FFFFFF;" points="139.8,119.1 139.8,370 307.1,370 307.1,334.7 342.4,334.7 342.4,119.1 "/>
<polygon style="fill:#E6E9EE;" points="307.1,370 342.4,334.7 307.1,334.7 "/>
<path style="fill:#FF7058;" d="M261,90.8v-6.9c0-11-8.9-19.9-19.9-19.9s-19.9,8.9-19.9,19.9v6.9h-35v40.7H296V90.8H261z"/>
<circle style="fill:#84DBFF;" cx="241.1" cy="83.9" r="9.9"/>
<path style="fill:#FFD05B;" d="M241,209.3c19.5,0,35.3,15.8,35.3,35.3c0,17.7-13,32.3-29.9,34.9v44.8c41.6-2.8,74.5-37.4,74.5-79.7
	c0-44.1-35.8-79.9-79.9-79.9c-20.1,0-38.5,7.4-52.6,19.7l31.7,31.7C226,211.8,233.2,209.3,241,209.3z"/>
<path style="fill:#324A5E;" d="M161.3,239.2h44.8c0.9-5.7,3.1-11,6.4-15.4l-31.7-31.7C169.6,204.8,162.5,221.2,161.3,239.2z"/>
<path style="fill:#FF7058;" d="M206.1,250h-44.8c2.6,39.8,34.5,71.7,74.3,74.3v-44.8C220.4,277.2,208.4,265.2,206.1,250z"/>
<g>
</g>
<g>
</g>
<g>
</g>
<g>
</g>
<g>
</g>
<g>
</g>
<g>
</g>
<g>
</g>
<g>
</g>
<g>
</g>
<g>
</g>
<g>
</g>
<g>
</g>
<g>
</g>
<g>
</g>
</svg>
